<svg id="Layer_1" data-name="Layer 1" xmlns="http://www.w3.org/2000/svg" xmlns:xlink="http://www.w3.org/1999/xlink" viewBox="0 0 1280 1024"><defs><style>.cls-1,.cls-14,.cls-17,.cls-28,.cls-30,.cls-31{fill:none;}.cls-2{clip-path:url(#clip-path);}.cls-3{clip-path:url(#clip-path-2);}.cls-4{fill:#152f46;}.cls-5{fill:#19354d;opacity:0.3;}.cls-18,.cls-26,.cls-27,.cls-5{isolation:isolate;}.cls-6{fill:#051630;}.cls-18,.cls-7{fill:#c8f2fe;}.cls-8{fill:#0f2034;}.cls-9{fill:#e687a9;}.cls-10{fill:#fd8f8e;}.cls-11{fill:#202135;}.cls-12{fill:#274964;}.cls-13{fill:#1a364e;}.cls-14{stroke:#fff;}.cls-14,.cls-17,.cls-22,.cls-23,.cls-28,.cls-30,.cls-31{stroke-miterlimit:10;}.cls-14,.cls-30{stroke-width:8px;}.cls-15{fill:#171926;}.cls-16,.cls-22,.cls-23{fill:#fff;}.cls-17,.cls-31{stroke:#c8f2fe;}.cls-17{stroke-width:5.3px;}.cls-18,.cls-27{opacity:0.5;}.cls-19{fill:#1c2340;}.cls-20{opacity:0.82;}.cls-21{fill:#3cdff0;}.cls-22,.cls-23{stroke:#231f20;}.cls-22{stroke-width:1.09px;}.cls-23{stroke-width:1.16px;}.cls-24{fill:#114b79;}.cls-25,.cls-26,.cls-27{fill:#1d6e83;}.cls-26{opacity:0.21;}.cls-28{stroke:#114b79;stroke-width:3.26px;}.cls-29{fill:url(#linear-gradient);}.cls-30{stroke:#f9f4f5;stroke-linecap:round;}</style><clipPath id="clip-path"><circle class="cls-1" cx="661" cy="517" r="348.5"/></clipPath><clipPath id="clip-path-2"><rect class="cls-1" x="109" y="153" width="1068" height="715.04"/></clipPath><linearGradient id="linear-gradient" x1="400.57" y1="1668.33" x2="403.78" y2="1340.97" gradientTransform="matrix(1, 0, 0, -1, 244, 2254)" gradientUnits="userSpaceOnUse"><stop offset="0" stop-color="#3cdff0" stop-opacity="0"/><stop offset="1" stop-color="#3cdff0"/></linearGradient></defs><title>coder illustration</title><g class="cls-2"><g class="cls-3"><rect class="cls-4" x="101.71" y="157.55" width="1072.1" height="710.48"/><polygon class="cls-5" points="26.7 373.33 391.04 28.51 594.53 116.35 1199.61 962.66 -1.37 348.55 26.7 373.33"/><polyline class="cls-5" points="1028.55 79.8 1379.39 117.52 634.03 1059.1"/><circle class="cls-6" cx="649.39" cy="541.81" r="377.27"/><circle class="cls-6" cx="668.2" cy="542.78" r="377.27"/><path class="cls-7" d="M848.17,706.36H457.86V542.65a61.29,61.29,0,0,1,61.28-61.28H786.9a61.28,61.28,0,0,1,61.27,61.28Z"/><path class="cls-8" d="M848.17,710.46H453.31V547.09a61.62,61.62,0,0,1,61.63-61.62H786.55a61.62,61.62,0,0,1,61.62,61.62V710.46Z"/><path class="cls-7" d="M738.87,470.9H566.71V384.39a29.19,29.19,0,0,1,29.2-29.18H709.67a29.19,29.19,0,0,1,29.2,29.18Z"/><path class="cls-8" d="M738.87,470.9H562.62v-83a29,29,0,0,1,29-29H709.84a29,29,0,0,1,29,29Z"/><rect class="cls-9" x="618.63" y="486.84" width="58.3" height="52.83"/><polygon class="cls-10" points="677.13 513.21 631.16 539.67 618.63 539.67 618.63 500.91 677.13 513.21"/><path class="cls-7" d="M969.34,717.72l-504,9.13-141.58-8.22s48.88-127,182.88-177.23c0,0,56.42-47.17,99.05-27A52.26,52.26,0,0,1,619.59,524s45.52,25.58,72.48-5.48a118,118,0,0,1,22.74-6.75c19.56-3.78,47.32-4.08,64.91,17.71,0,0,184.56,90.44,186.25,147.09Z"/><path class="cls-11" d="M963.92,720.53l-504,9.13-141.58-8.22s48.88-127,182.88-177.23c0,0,56.42-47.17,99-27a52.26,52.26,0,0,1,13.87,9.63s45.52,25.58,72.48-5.48a118,118,0,0,1,22.74-6.75c19.56-3.78,47.32-4.08,64.91,17.71,0,0,184.56,90.44,186.25,147.09Z"/><path class="cls-12" d="M1187.94,868H101.71V633.75l390.12,65.8a913,913,0,0,0,302.89.14l393.21-65.94V868Z"/><path class="cls-7" d="M685.4,752.36H661.63a6.56,6.56,0,0,1-6.56-6.56V730.68a6.56,6.56,0,0,1,6.56-6.56H685.4a6.56,6.56,0,0,1,6.56,6.56V745.8A6.56,6.56,0,0,1,685.4,752.36Z"/><path class="cls-7" d="M734.42,752.36H710.55a7.7,7.7,0,0,1-7.33-6.86l-1.73-15.9a5.91,5.91,0,0,1,5.83-6.85h23.87a7.68,7.68,0,0,1,7.32,6.85l1.74,15.9A5.92,5.92,0,0,1,734.42,752.36Z"/><path class="cls-7" d="M742.82,787.42H717.17a8,8,0,0,1-7.88-6.85l-1.86-15.9a6.06,6.06,0,0,1,6.27-6.85h25.65a8.05,8.05,0,0,1,7.88,6.85l1.86,15.9A6.06,6.06,0,0,1,742.82,787.42Z"/><path class="cls-7" d="M750.12,821.13H723.21c-4.1,0-7.8-3.07-8.27-6.86l-2-15.89c-.47-3.79,2.47-6.86,6.57-6.86h26.92c4.1,0,7.8,3.07,8.27,6.86l2,15.89C757.17,818.06,754.22,821.13,750.12,821.13Z"/><path class="cls-7" d="M756.67,857.56h-28.9c-4.4,0-8.38-3.07-8.88-6.85l-2.1-15.9c-.5-3.78,2.66-6.85,7.06-6.85h28.9c4.4,0,8.37,3.07,8.88,6.85l2.1,15.9C764.23,854.49,761.07,857.56,756.67,857.56Z"/><path class="cls-7" d="M689.46,787.42H660.75a7,7,0,0,1-7-7V766.24a7,7,0,0,1,7-7h28.71a7,7,0,0,1,7,7v14.13A7,7,0,0,1,689.46,787.42Z"/><path class="cls-7" d="M694.1,822.49H661.59a7.42,7.42,0,0,1-7.43-7.43V801.68a7.42,7.42,0,0,1,7.43-7.42H694.1a7.42,7.42,0,0,1,7.42,7.42v13.38A7.42,7.42,0,0,1,694.1,822.49Z"/><path class="cls-7" d="M698.29,857.56H662a7.79,7.79,0,0,1-7.79-7.79V837.11a7.79,7.79,0,0,1,7.79-7.79h36.34a7.79,7.79,0,0,1,7.79,7.79v12.66A7.79,7.79,0,0,1,698.29,857.56Z"/><path class="cls-7" d="M779.38,751.44H755.62a6.91,6.91,0,0,1-6.85-6.53l-.68-15.17a6.2,6.2,0,0,1,6.26-6.53h23.76a6.91,6.91,0,0,1,6.85,6.53l.68,15.17A6.2,6.2,0,0,1,779.38,751.44Z"/><path class="cls-7" d="M793,785.15H764.49a7.43,7.43,0,0,1-7.36-7l-.64-14.18a6.67,6.67,0,0,1,6.73-7h28.55a7.43,7.43,0,0,1,7.36,7l.64,14.18A6.67,6.67,0,0,1,793,785.15Z"/><path class="cls-7" d="M809.08,819.3H776.61a7.82,7.82,0,0,1-7.75-7.4l-.61-13.43a7,7,0,0,1,7.09-7.4h32.47a7.82,7.82,0,0,1,7.75,7.4l.61,13.43A7,7,0,0,1,809.08,819.3Z"/><path class="cls-7" d="M821.37,853H784.94a8.23,8.23,0,0,1-8.14-7.77l-.57-12.71a7.37,7.37,0,0,1,7.43-7.76H820.1a8.22,8.22,0,0,1,8.13,7.76l.57,12.71A7.36,7.36,0,0,1,821.37,853Z"/><path class="cls-7" d="M839,746.89H811c-4.26,0-8-2.88-8.26-6.43l-1.28-14.92c-.3-3.55,2.91-6.43,7.17-6.43h28c4.26,0,8,2.88,8.26,6.43l1.28,14.92C846.47,744,843.26,746.89,839,746.89Z"/><path class="cls-7" d="M856.14,780.14H822.52c-4.58,0-8.56-3.1-8.88-6.92l-1.19-14c-.33-3.82,3.12-6.91,7.71-6.91h33.61c4.59,0,8.56,3.09,8.89,6.91l1.19,14C864.17,777,860.72,780.14,856.14,780.14Z"/><path class="cls-7" d="M876.09,813.84H837.85c-4.82,0-9-3.26-9.36-7.29l-1.13-13.21c-.34-4,3.3-7.28,8.12-7.28h38.24c4.83,0,9,3.26,9.36,7.28l1.13,13.21C884.55,810.57,880.92,813.84,876.09,813.84Z"/><path class="cls-7" d="M891.63,847.09H848.72c-5.07,0-9.46-3.42-9.82-7.64l-1.07-12.51c-.36-4.21,3.46-7.64,8.52-7.64h42.91c5.06,0,9.46,3.43,9.81,7.64l1.07,12.51C900.5,843.67,896.69,847.09,891.63,847.09Z"/><path class="cls-7" d="M893.63,741.88H865.42c-4.3,0-8.71-2.69-9.87-6l-4.84-13.94c-1.15-3.32,1.39-6,5.69-6h28.21c4.3,0,8.72,2.69,9.87,6l4.85,13.94C900.48,739.19,897.93,741.88,893.63,741.88Z"/><path class="cls-7" d="M918.71,772.85H884.82c-4.63,0-9.38-2.89-10.62-6.46l-4.52-13c-1.24-3.57,1.5-6.46,6.12-6.46h33.89c4.63,0,9.38,2.89,10.62,6.46l4.52,13C926.07,770,923.33,772.85,918.71,772.85Z"/><path class="cls-7" d="M946.59,803.82H908c-4.87,0-9.87-3.05-11.18-6.81l-4.29-12.34c-1.31-3.76,1.58-6.81,6.45-6.81h38.55c4.87,0,9.87,3,11.18,6.81L953,797C954.35,800.77,951.46,803.82,946.59,803.82Z"/><path class="cls-7" d="M970.06,834.79H926.8c-5.1,0-10.35-3.2-11.72-7.14L911,816c-1.38-3.94,1.65-7.13,6.76-7.13H961c5.11,0,10.35,3.2,11.72,7.13l4.06,11.69C978.19,831.6,975.16,834.79,970.06,834.79Z"/><path class="cls-7" d="M948.94,733.8l-28,1.1c-4.27.17-9.18-2.42-11-5.77L902.47,715c-1.79-3.36.21-6.21,4.47-6.38l28-1.1c4.27-.17,9.18,2.42,11,5.77l7.52,14.09C955.21,730.78,953.2,733.63,948.94,733.8Z"/><path class="cls-7" d="M980,764.77l-33.63,1.32c-4.59.17-9.86-2.61-11.79-6.21l-7-13.17c-1.93-3.61.23-6.68,4.82-6.86l33.63-1.32c4.59-.18,9.86,2.6,11.79,6.21l7,13.17C986.79,761.52,984.63,764.59,980,764.77Z"/><path class="cls-7" d="M1014,795.62l-38.26,1.5c-4.83.19-10.39-2.73-12.42-6.54l-6.66-12.47c-2-3.8.24-7,5.08-7.22l38.26-1.5c4.83-.19,10.38,2.73,12.42,6.54L1019,788.4C1021.07,792.2,1018.79,795.44,1014,795.62Z"/><path class="cls-7" d="M1043.46,826.66l-42.93,1.68c-5.06.2-10.89-2.87-13-6.86l-6.3-11.81c-2.13-4,.25-7.37,5.31-7.57l42.93-1.68c5.07-.2,10.9,2.87,13,6.85l6.3,11.81C1050.91,823.07,1048.52,826.46,1043.46,826.66Z"/><path class="cls-7" d="M1014.3,724.18l-27.89,2.54c-4.25.39-9.27-1.79-11.22-4.87L967,708.92c-1.95-3.08-.08-5.89,4.17-6.28l27.9-2.54c4.24-.39,9.26,1.8,11.21,4.87l8.16,12.93C1020.42,721,1018.55,723.79,1014.3,724.18Z"/><path class="cls-7" d="M1046.82,751.82l-33.52,3c-4.57.42-10-1.93-12.06-5.24l-7.64-12.09c-2.09-3.31-.08-6.33,4.48-6.75l33.52-3c4.57-.42,10,1.93,12.06,5.24l7.64,12.09C1053.39,748.39,1051.38,751.41,1046.82,751.82Z"/><path class="cls-7" d="M1082.13,779.21,1044,782.68c-4.82.44-10.51-2-12.71-5.52l-7.23-11.45c-2.21-3.49-.09-6.68,4.73-7.11l38.12-3.47c4.82-.44,10.51,2,12.71,5.52l7.23,11.45C1089.06,775.59,1086.94,778.77,1082.13,779.21Z"/><path class="cls-7" d="M1113,807l-42.78,3.89c-5,.46-11-2.13-13.32-5.79l-6.85-10.84c-2.31-3.65-.09-7,5-7.45l42.78-3.89c5-.46,11,2.13,13.32,5.79l6.85,10.84C1120.3,803.2,1118.08,806.54,1113,807Z"/><path class="cls-7" d="M613.81,752.36h23.77a6.56,6.56,0,0,0,6.56-6.56V730.68a6.56,6.56,0,0,0-6.56-6.56H613.81a6.55,6.55,0,0,0-6.56,6.56V745.8A6.56,6.56,0,0,0,613.81,752.36Z"/><path class="cls-7" d="M564.81,752.36h23.87A7.68,7.68,0,0,0,596,745.5l1.74-15.9a5.91,5.91,0,0,0-5.83-6.85H568a7.69,7.69,0,0,0-7.33,6.85L559,745.5A5.91,5.91,0,0,0,564.81,752.36Z"/><path class="cls-7" d="M556.41,787.42h25.65a8,8,0,0,0,7.88-6.85l1.86-15.9a6.06,6.06,0,0,0-6.27-6.85H559.88a8,8,0,0,0-7.88,6.85l-1.86,15.9A6.06,6.06,0,0,0,556.41,787.42Z"/><path class="cls-7" d="M549.1,821.13H576c4.1,0,7.8-3.07,8.26-6.86l2-15.89c.47-3.79-2.48-6.86-6.58-6.86H552.75c-4.1,0-7.8,3.07-8.27,6.86l-2,15.89C542.06,818.06,545,821.13,549.1,821.13Z"/><path class="cls-7" d="M542.56,857.56h28.9c4.4,0,8.37-3.07,8.88-6.85l2.1-15.9c.5-3.78-2.66-6.85-7.06-6.85h-28.9c-4.4,0-8.38,3.07-8.88,6.85l-2.1,15.9C535,854.49,538.16,857.56,542.56,857.56Z"/><path class="cls-7" d="M609.74,787.42h28.71a7,7,0,0,0,7-7V766.24a7,7,0,0,0-7-7H609.74a7,7,0,0,0-7,7v14.13A7,7,0,0,0,609.74,787.42Z"/><path class="cls-7" d="M605.11,822.49h32.51a7.43,7.43,0,0,0,7.43-7.43V801.68a7.43,7.43,0,0,0-7.43-7.42H605.11a7.43,7.43,0,0,0-7.43,7.42v13.41A7.42,7.42,0,0,0,605.11,822.49Z"/><path class="cls-7" d="M600.92,857.56h36.34a7.79,7.79,0,0,0,7.79-7.79V837.11a7.79,7.79,0,0,0-7.79-7.79H600.92a7.79,7.79,0,0,0-7.79,7.79v12.66A7.79,7.79,0,0,0,600.92,857.56Z"/><path class="cls-7" d="M519.85,751.44h23.76a6.91,6.91,0,0,0,6.85-6.53l.68-15.17a6.2,6.2,0,0,0-6.26-6.53H521.12a6.91,6.91,0,0,0-6.85,6.53l-.68,15.17A6.2,6.2,0,0,0,519.85,751.44Z"/><path class="cls-7" d="M506.19,785.15h28.54a7.44,7.44,0,0,0,7.37-7l.63-14.18a6.66,6.66,0,0,0-6.73-7H507.46a7.45,7.45,0,0,0-7.37,7l-.63,14.18A6.67,6.67,0,0,0,506.19,785.15Z"/><path class="cls-7" d="M490.15,819.3h32.47a7.82,7.82,0,0,0,7.75-7.4l.6-13.43a7,7,0,0,0-7.08-7.4H491.42a7.83,7.83,0,0,0-7.76,7.4l-.6,13.43A7,7,0,0,0,490.15,819.3Z"/><path class="cls-7" d="M477.85,853h36.44a8.21,8.21,0,0,0,8.13-7.77l.58-12.71a7.37,7.37,0,0,0-7.43-7.76H479.13a8.21,8.21,0,0,0-8.13,7.76l-.58,12.71A7.37,7.37,0,0,0,477.85,853Z"/><path class="cls-7" d="M460.23,746.89h28c4.26,0,8-2.88,8.26-6.43l1.27-14.92c.31-3.55-2.9-6.43-7.16-6.43h-28c-4.26,0-8,2.88-8.27,6.43l-1.27,14.92C452.76,744,456,746.89,460.23,746.89Z"/><path class="cls-7" d="M443.09,780.14H476.7c4.59,0,8.56-3.1,8.89-6.92l1.19-14c.32-3.82-3.13-6.91-7.71-6.91H445.45c-4.58,0-8.56,3.09-8.88,6.91l-1.19,14C435.06,777,438.5,780.14,443.09,780.14Z"/><path class="cls-7" d="M423.14,813.84h38.24c4.82,0,9-3.26,9.36-7.29l1.13-13.21c.34-4-3.3-7.28-8.12-7.28H425.51c-4.83,0-9,3.26-9.36,7.28L415,806.55C414.68,810.57,418.31,813.84,423.14,813.84Z"/><path class="cls-7" d="M407.6,847.09h42.91c5.07,0,9.46-3.42,9.82-7.64l1.06-12.51c.36-4.21-3.45-7.64-8.51-7.64H410c-5.06,0-9.46,3.43-9.82,7.64l-1.06,12.51C398.73,843.67,402.54,847.09,407.6,847.09Z"/><path class="cls-7" d="M405.59,741.88h28.22c4.29,0,8.71-2.69,9.87-6l4.84-13.94c1.15-3.32-1.39-6-5.69-6H414.62c-4.3,0-8.72,2.69-9.87,6l-4.85,13.94C398.75,739.19,401.3,741.88,405.59,741.88Z"/><path class="cls-7" d="M380.52,772.85h33.89c4.62,0,9.38-2.89,10.61-6.46l4.53-13c1.24-3.57-1.5-6.46-6.12-6.46h-33.9c-4.62,0-9.37,2.89-10.61,6.46l-4.53,13C373.15,770,375.9,772.85,380.52,772.85Z"/><path class="cls-7" d="M352.64,803.82h38.55c4.86,0,9.87-3.05,11.18-6.81l4.29-12.34c1.3-3.76-1.59-6.81-6.45-6.81H361.66c-4.87,0-9.88,3-11.18,6.81L346.19,797C344.88,800.77,347.77,803.82,352.64,803.82Z"/><path class="cls-7" d="M329.17,834.79h43.26c5.1,0,10.35-3.2,11.71-7.14L388.2,816c1.37-3.94-1.65-7.13-6.76-7.13H338.18c-5.1,0-10.35,3.2-11.71,7.13l-4.06,11.69C321,831.6,324.07,834.79,329.17,834.79Z"/><path class="cls-7" d="M350.29,733.8l28,1.1c4.26.17,9.17-2.42,11-5.77L396.76,715c1.79-3.36-.21-6.21-4.48-6.38l-28-1.1c-4.26-.17-9.17,2.42-11,5.77l-7.52,14.09C344,730.78,346,733.63,350.29,733.8Z"/><path class="cls-7" d="M319.18,764.77l33.64,1.32c4.58.17,9.86-2.61,11.78-6.21l7-13.17c1.93-3.61-.23-6.68-4.82-6.86l-33.63-1.32c-4.59-.18-9.87,2.6-11.79,6.21l-7,13.17C312.44,761.52,314.6,764.59,319.18,764.77Z"/><path class="cls-7" d="M285.27,795.62l38.26,1.5c4.83.19,10.39-2.73,12.42-6.54l6.66-12.47c2-3.8-.25-7-5.08-7.22l-38.26-1.5c-4.83-.19-10.39,2.73-12.42,6.54l-6.66,12.47C278.17,792.2,280.43,795.44,285.27,795.62Z"/><path class="cls-7" d="M255.77,826.66l42.93,1.68c5.06.2,10.89-2.87,13-6.86L318,809.67c2.12-4-.26-7.37-5.32-7.57l-42.93-1.68c-5.07-.2-10.9,2.87-13,6.85l-6.3,11.81C248.32,823.07,250.7,826.46,255.77,826.66Z"/><path class="cls-7" d="M284.92,724.18l27.9,2.54c4.25.39,9.27-1.79,11.21-4.87l8.17-12.93c1.94-3.08.08-5.89-4.17-6.28l-27.9-2.54c-4.25-.39-9.27,1.8-11.21,4.87l-8.17,12.93C278.81,721,280.68,723.79,284.92,724.18Z"/><path class="cls-7" d="M252.42,751.82l33.52,3c4.56.42,10-1.93,12.06-5.24l7.63-12.09c2.09-3.31.09-6.33-4.48-6.75l-33.52-3c-4.57-.42-10,1.93-12.06,5.24l-7.64,12.09C245.83,748.39,247.84,751.41,252.42,751.82Z"/><path class="cls-7" d="M217.11,779.21l38.12,3.47c4.82.44,10.51-2,12.71-5.52l7.23-11.45c2.21-3.49.09-6.68-4.72-7.11l-38.13-3.47c-4.82-.44-10.51,2-12.71,5.52l-7.23,11.45C210.17,775.59,212.29,778.77,217.11,779.21Z"/><path class="cls-7" d="M186.2,807,229,810.89c5.05.46,11-2.13,13.32-5.79l6.85-10.84c2.3-3.65.09-7-5-7.45l-42.78-3.89c-5-.46-11,2.13-13.32,5.79l-6.85,10.84C178.93,803.2,181.15,806.54,186.2,807Z"/><path class="cls-13" d="M679,754.63H655.25a6.56,6.56,0,0,1-6.56-6.56V733a6.56,6.56,0,0,1,6.56-6.55H679a6.55,6.55,0,0,1,6.55,6.55v15.12A6.55,6.55,0,0,1,679,754.63Z"/><path class="cls-13" d="M728,754.63H704.17a7.68,7.68,0,0,1-7.33-6.85l-1.73-15.9a5.91,5.91,0,0,1,5.83-6.85h23.87a7.68,7.68,0,0,1,7.32,6.85l1.74,15.9A5.91,5.91,0,0,1,728,754.63Z"/><path class="cls-13" d="M736.44,789.7H710.79a8,8,0,0,1-7.88-6.85L701,767a6.07,6.07,0,0,1,6.28-6.85H733a8,8,0,0,1,7.88,6.85l1.86,15.9A6.07,6.07,0,0,1,736.44,789.7Z"/><path class="cls-13" d="M743.74,823.4H716.83c-4.1,0-7.8-3.06-8.27-6.85l-1.95-15.9c-.47-3.78,2.47-6.85,6.57-6.85H740.1c4.1,0,7.8,3.07,8.26,6.85l2,15.9C750.79,820.34,747.84,823.4,743.74,823.4Z"/><path class="cls-13" d="M750.29,860.29h-28.9c-4.4,0-8.38-3.06-8.88-6.85l-2.1-15.9c-.5-3.78,2.66-6.85,7.06-6.85h28.9c4.4,0,8.37,3.07,8.88,6.85l2.1,15.9C757.85,857.23,754.69,860.29,750.29,860.29Z"/><path class="cls-13" d="M683.06,789.7H654.38a7,7,0,0,1-7-7.05V768.51a7,7,0,0,1,7-7h28.71a7.05,7.05,0,0,1,7,7v14.16A7.06,7.06,0,0,1,683.06,789.7Z"/><path class="cls-13" d="M687.72,824.77H655.21a7.43,7.43,0,0,1-7.43-7.43V804a7.43,7.43,0,0,1,7.43-7.43h32.51a7.43,7.43,0,0,1,7.43,7.43v13.38A7.43,7.43,0,0,1,687.72,824.77Z"/><path class="cls-13" d="M691.91,860.29H655.57a7.78,7.78,0,0,1-7.79-7.78V839.84a7.78,7.78,0,0,1,7.79-7.78h36.34a7.78,7.78,0,0,1,7.79,7.78v12.67A7.78,7.78,0,0,1,691.91,860.29Z"/><path class="cls-13" d="M773,753.72H749.24a6.9,6.9,0,0,1-6.84-6.53L741.71,732a6.21,6.21,0,0,1,6.26-6.54h23.76a6.92,6.92,0,0,1,6.85,6.54l.68,15.17A6.2,6.2,0,0,1,773,753.72Z"/><path class="cls-13" d="M786.66,787.88H758.11a7.43,7.43,0,0,1-7.36-7l-.64-14.18a6.67,6.67,0,0,1,6.73-7h28.55a7.43,7.43,0,0,1,7.36,7l.64,14.18A6.67,6.67,0,0,1,786.66,787.88Z"/><path class="cls-13" d="M802.7,821.58H770.23a7.83,7.83,0,0,1-7.75-7.41l-.61-13.42a7,7,0,0,1,7.09-7.41h32.47a7.83,7.83,0,0,1,7.75,7.41l.61,13.42A7,7,0,0,1,802.7,821.58Z"/><path class="cls-13" d="M815,855.74H778.56a8.21,8.21,0,0,1-8.13-7.76l-.58-12.71a7.38,7.38,0,0,1,7.44-7.77h36.43a8.23,8.23,0,0,1,8.14,7.77l.57,12.71A7.37,7.37,0,0,1,815,855.74Z"/><path class="cls-13" d="M832.62,749.17h-28c-4.26,0-8-2.88-8.26-6.43l-1.28-14.92c-.3-3.56,2.91-6.43,7.17-6.43h28c4.26,0,8,2.87,8.26,6.43l1.28,14.92C840.09,746.29,836.88,749.17,832.62,749.17Z"/><path class="cls-13" d="M849.76,782.87H816.14c-4.58,0-8.56-3.1-8.88-6.92L806.06,762c-.32-3.82,3.13-6.92,7.71-6.92h33.62c4.58,0,8.56,3.1,8.88,6.92l1.2,13.94C857.79,779.78,854.34,782.87,849.76,782.87Z"/><path class="cls-13" d="M869.71,816.12H831.47c-4.82,0-9-3.26-9.36-7.29L821,795.62c-.34-4,3.3-7.29,8.12-7.29h38.24c4.83,0,9,3.27,9.36,7.29l1.13,13.21C878.18,812.86,874.54,816.12,869.71,816.12Z"/><path class="cls-13" d="M885.25,849.82H842.33c-5.06,0-9.45-3.42-9.81-7.64l-1.07-12.5c-.36-4.22,3.46-7.64,8.51-7.64h42.92c5.06,0,9.45,3.42,9.81,7.64l1.07,12.5C894.12,846.4,890.31,849.82,885.25,849.82Z"/><path class="cls-13" d="M887.25,744.61H859c-4.3,0-8.71-2.69-9.87-6l-4.84-13.94c-1.15-3.32,1.39-6,5.69-6h28.21c4.3,0,8.72,2.7,9.87,6l4.84,13.94C894.1,741.93,891.55,744.61,887.25,744.61Z"/><path class="cls-13" d="M912.33,775.58H878.44c-4.63,0-9.38-2.89-10.62-6.46l-4.52-13c-1.24-3.57,1.5-6.47,6.12-6.47h33.89c4.63,0,9.38,2.9,10.62,6.47l4.52,13C919.69,772.69,917,775.58,912.33,775.58Z"/><path class="cls-13" d="M940.21,806.55H901.66c-4.87,0-9.87-3-11.18-6.81l-4.29-12.34c-1.31-3.76,1.58-6.81,6.45-6.81h38.55c4.87,0,9.87,3,11.18,6.81l4.29,12.34C948,803.5,945.08,806.55,940.21,806.55Z"/><path class="cls-13" d="M963.67,837.52H920.42c-5.1,0-10.35-3.19-11.71-7.14l-4.06-11.68c-1.37-3.94,1.66-7.14,6.76-7.14h43.25c5.1,0,10.35,3.2,11.71,7.14l4.06,11.68C971.8,834.33,968.78,837.52,963.67,837.52Z"/><path class="cls-13" d="M942.56,736.27l-28,1.1c-4.27.17-9.18-2.42-11-5.77l-7.52-14.09c-1.78-3.36.22-6.21,4.48-6.38l28-1.1c4.27-.16,9.18,2.42,11,5.77L947,729.9C948.83,733.25,946.82,736.11,942.56,736.27Z"/><path class="cls-13" d="M973.66,767.24,940,768.56c-4.59.18-9.86-2.6-11.79-6.21l-7-13.17c-1.93-3.61.23-6.68,4.81-6.86L959.67,741c4.58-.17,9.86,2.6,11.79,6.21l7,13.17C980.41,764,978.25,767.06,973.66,767.24Z"/><path class="cls-13" d="M1007.58,798.1l-38.26,1.5c-4.83.19-10.39-2.74-12.42-6.54l-6.66-12.47c-2-3.8.24-7,5.07-7.23l38.27-1.5c4.83-.19,10.38,2.74,12.42,6.54l6.65,12.48C1014.69,794.68,1012.41,797.91,1007.58,798.1Z"/><path class="cls-13" d="M1037.08,829.14l-42.93,1.68c-5.06.2-10.89-2.87-13-6.86l-6.31-11.81c-2.12-4,.26-7.37,5.32-7.57l42.93-1.68c5.07-.2,10.9,2.87,13,6.85l6.3,11.81C1044.53,825.55,1042.15,828.94,1037.08,829.14Z"/><path class="cls-13" d="M1007.92,726.65,980,729.19c-4.25.39-9.27-1.79-11.22-4.87l-8.16-12.93c-1.95-3.08-.08-5.89,4.17-6.27l27.89-2.55c4.25-.38,9.27,1.8,11.22,4.88l8.16,12.93C1014,723.46,1012.17,726.27,1007.92,726.65Z"/><path class="cls-13" d="M1040.44,754.3l-33.52,3.05c-4.57.41-10-1.93-12.06-5.24L987.22,740c-2.09-3.32-.08-6.33,4.48-6.75l33.52-3.06c4.57-.41,10,1.94,12.06,5.25l7.64,12.09C1047,750.86,1045,753.88,1040.44,754.3Z"/><path class="cls-13" d="M1075.75,781.68l-38.13,3.47c-4.82.44-10.51-2-12.71-5.52l-7.23-11.45c-2.21-3.49-.09-6.67,4.72-7.11l38.13-3.47c4.82-.44,10.51,2,12.71,5.52l7.23,11.45C1082.68,778.06,1080.56,781.25,1075.75,781.68Z"/><path class="cls-13" d="M1106.66,809.47l-42.79,3.89c-5,.46-11-2.13-13.32-5.78l-6.84-10.84c-2.31-3.66-.1-7,5-7.45l42.78-3.9c5-.46,11,2.13,13.33,5.79l6.84,10.84C1113.92,805.68,1111.7,809,1106.66,809.47Z"/><path class="cls-13" d="M607.43,754.63H631.2a6.55,6.55,0,0,0,6.56-6.56V733a6.55,6.55,0,0,0-6.56-6.55H607.43a6.56,6.56,0,0,0-6.56,6.55V748.1A6.56,6.56,0,0,0,607.43,754.63Z"/><path class="cls-13" d="M558.43,754.63h23.86a7.68,7.68,0,0,0,7.33-6.85l1.74-15.9a5.91,5.91,0,0,0-5.83-6.85H561.66a7.69,7.69,0,0,0-7.33,6.85l-1.73,15.9A5.9,5.9,0,0,0,558.43,754.63Z"/><path class="cls-13" d="M550,789.7h25.65a8,8,0,0,0,7.88-6.85l1.87-15.9a6.07,6.07,0,0,0-6.28-6.85H553.5a8,8,0,0,0-7.88,6.85l-1.86,15.9A6.07,6.07,0,0,0,550,789.7Z"/><path class="cls-13" d="M542.72,823.4h26.92c4.1,0,7.8-3.06,8.26-6.85l2-15.9c.47-3.78-2.48-6.85-6.58-6.85H546.37c-4.1,0-7.8,3.07-8.27,6.85l-2,15.9C535.68,820.34,538.62,823.4,542.72,823.4Z"/><path class="cls-13" d="M536.18,860.29h28.9c4.4,0,8.37-3.06,8.88-6.85l2.1-15.9c.5-3.78-2.66-6.85-7.06-6.85H540.1c-4.41,0-8.38,3.07-8.88,6.85l-2.1,15.9C528.61,857.23,531.78,860.29,536.18,860.29Z"/><path class="cls-13" d="M603.39,789.7h28.69a7.05,7.05,0,0,0,7-7.05V768.51a7.05,7.05,0,0,0-7-7H603.37a7,7,0,0,0-7,7v14.16A7,7,0,0,0,603.39,789.7Z"/><path class="cls-13" d="M598.74,824.77h32.51a7.43,7.43,0,0,0,7.42-7.43V804a7.43,7.43,0,0,0-7.42-7.43H598.74a7.43,7.43,0,0,0-7.43,7.43v13.4A7.4,7.4,0,0,0,598.74,824.77Z"/><path class="cls-13" d="M594.52,860.29h36.37a7.78,7.78,0,0,0,7.78-7.78V839.84a7.78,7.78,0,0,0-7.78-7.78H594.54a7.78,7.78,0,0,0-7.79,7.78v12.69A7.76,7.76,0,0,0,594.52,860.29Z"/><path class="cls-13" d="M513.47,753.72h23.76a6.92,6.92,0,0,0,6.85-6.53l.68-15.17a6.21,6.21,0,0,0-6.26-6.54H514.74a6.92,6.92,0,0,0-6.85,6.54l-.68,15.17A6.2,6.2,0,0,0,513.47,753.72Z"/><path class="cls-13" d="M499.81,787.88h28.55a7.43,7.43,0,0,0,7.36-7l.64-14.18a6.67,6.67,0,0,0-6.73-7H501.08a7.43,7.43,0,0,0-7.36,7l-.64,14.18A6.67,6.67,0,0,0,499.81,787.88Z"/><path class="cls-13" d="M483.77,821.58h32.47a7.83,7.83,0,0,0,7.75-7.41l.61-13.42a7,7,0,0,0-7.09-7.41H485a7.83,7.83,0,0,0-7.75,7.41l-.61,13.42A7,7,0,0,0,483.77,821.58Z"/><path class="cls-13" d="M471.47,855.74h36.44A8.21,8.21,0,0,0,516,848l.58-12.71a7.38,7.38,0,0,0-7.44-7.77H472.75a8.21,8.21,0,0,0-8.13,7.77L464,848A7.37,7.37,0,0,0,471.47,855.74Z"/><path class="cls-13" d="M453.85,749.17h28c4.26,0,7.95-2.88,8.26-6.43l1.27-14.92c.31-3.56-2.9-6.43-7.17-6.43h-28c-4.26,0-8,2.87-8.27,6.43l-1.27,14.92C446.38,746.29,449.59,749.17,453.85,749.17Z"/><path class="cls-13" d="M436.71,782.87h33.61c4.59,0,8.56-3.1,8.89-6.92L480.4,762c.33-3.82-3.12-6.92-7.71-6.92H439.08c-4.59,0-8.56,3.1-8.89,6.92L429,776C428.68,779.78,432.13,782.87,436.71,782.87Z"/><path class="cls-13" d="M416.76,816.12H455c4.82,0,9-3.26,9.36-7.29l1.13-13.21c.34-4-3.3-7.29-8.12-7.29H419.13c-4.83,0-9,3.27-9.36,7.29l-1.13,13.21C408.29,812.86,411.93,816.12,416.76,816.12Z"/><path class="cls-13" d="M401.22,849.82h42.91c5.06,0,9.46-3.42,9.82-7.64l1.06-12.5c.36-4.22-3.45-7.64-8.51-7.64H403.59c-5.06,0-9.46,3.42-9.82,7.64l-1.06,12.5C392.35,846.4,396.16,849.82,401.22,849.82Z"/><path class="cls-13" d="M399.21,744.61h28.22c4.29,0,8.71-2.69,9.87-6l4.84-13.94c1.15-3.32-1.4-6-5.69-6H408.24c-4.3,0-8.72,2.7-9.87,6l-4.85,13.94C392.37,741.93,394.92,744.61,399.21,744.61Z"/><path class="cls-13" d="M374.14,775.58H408c4.62,0,9.38-2.89,10.61-6.46l4.53-13c1.24-3.57-1.5-6.47-6.12-6.47h-33.9c-4.62,0-9.37,2.9-10.61,6.47l-4.53,13C366.77,772.69,369.52,775.58,374.14,775.58Z"/><path class="cls-13" d="M346.26,806.55h38.55c4.86,0,9.87-3,11.18-6.81l4.29-12.34c1.3-3.76-1.59-6.81-6.45-6.81H355.28c-4.87,0-9.88,3-11.18,6.81l-4.29,12.34C338.5,803.5,341.39,806.55,346.26,806.55Z"/><path class="cls-13" d="M322.79,837.52H366c5.11,0,10.35-3.19,11.72-7.14l4.06-11.68c1.37-3.94-1.66-7.14-6.76-7.14H331.81c-5.11,0-10.35,3.2-11.72,7.14L316,830.38C314.67,834.33,317.69,837.52,322.79,837.52Z"/><path class="cls-13" d="M343.91,736.27l28,1.1c4.26.17,9.17-2.42,11-5.77l7.52-14.09c1.79-3.36-.21-6.21-4.48-6.38l-28-1.1c-4.26-.16-9.17,2.42-11,5.77l-7.52,14.1C337.64,733.25,339.65,736.11,343.91,736.27Z"/><path class="cls-13" d="M312.8,767.24l33.64,1.32c4.58.18,9.86-2.6,11.78-6.21l7-13.17c1.93-3.61-.23-6.68-4.82-6.86L326.8,741c-4.59-.17-9.87,2.6-11.79,6.21l-7,13.17C306.06,764,308.22,767.06,312.8,767.24Z"/><path class="cls-13" d="M278.89,798.1l38.26,1.5c4.83.19,10.39-2.74,12.42-6.54l6.66-12.47c2-3.8-.25-7-5.08-7.23l-38.26-1.5c-4.83-.19-10.39,2.74-12.42,6.54l-6.66,12.48C271.79,794.68,274.06,797.91,278.89,798.1Z"/><path class="cls-13" d="M249.39,829.14l42.93,1.68c5.06.2,10.89-2.87,13-6.86l6.31-11.81c2.12-4-.26-7.37-5.32-7.57l-42.93-1.68c-5.07-.2-10.9,2.87-13,6.85l-6.3,11.81C241.94,825.55,244.32,828.94,249.39,829.14Z"/><path class="cls-13" d="M278.54,726.65l27.9,2.54c4.25.39,9.27-1.79,11.21-4.87l8.17-12.93c1.94-3.08.08-5.89-4.17-6.27l-27.9-2.55c-4.25-.38-9.27,1.8-11.21,4.88l-8.17,12.93C272.43,723.46,274.29,726.27,278.54,726.65Z"/><path class="cls-13" d="M246,754.3l33.53,3.05c4.56.41,10-1.93,12.06-5.24L299.25,740c2.09-3.32.08-6.33-4.48-6.75l-33.52-3.06c-4.57-.41-10,1.94-12.06,5.25l-7.64,12.09C239.45,750.86,241.46,753.88,246,754.3Z"/><path class="cls-13" d="M210.72,781.68l38.13,3.47c4.82.44,10.51-2,12.71-5.52l7.23-11.45c2.21-3.49.09-6.67-4.72-7.11l-38.13-3.47c-4.82-.44-10.51,2-12.71,5.52L206,774.57C203.79,778.06,205.91,781.25,210.72,781.68Z"/><path class="cls-13" d="M179.81,809.47l42.79,3.89c5,.46,11-2.13,13.32-5.78l6.84-10.84c2.31-3.66.1-7-4.95-7.45L195,785.39c-5.05-.46-11,2.13-13.33,5.79L174.86,802C172.55,805.68,174.77,809,179.81,809.47Z"/><polyline class="cls-14" points="608.84 606.22 559.96 646.67 608.84 682.07"/><polyline class="cls-14" points="689.76 606.22 735 646.67 686.12 682.07"/><line class="cls-14" x1="666.38" y1="602.53" x2="634.03" y2="690.67"/><path class="cls-9" d="M703,438.48c0,1.12,0,2.24,0,3.34a114.21,114.21,0,0,1-5,32.48c-7.55,23.41-23.65,37.95-48.37,37.95-23.56,0-40.13-12.94-48.65-34.27-3.67-9.15-5.84-19.85-6.45-31.73q-.19-3.48-.19-7.1c0-7.91-8.3-21.16-6.53-28.36,8-32.43,32.64-56.05,61.82-56.05s53.84,23.62,61.83,56.05C713.23,418,703,430.58,703,438.48Z"/><path class="cls-15" d="M649.63,322c-36.84,0-66.7,23.65-66.7,62.39a72.74,72.74,0,0,0,4.88,26.38c4.17-16.95,12.9-31.49,24.45-41.52,6.91,3.77,19.48,6.3,33.84,6.3,17.57,0,32.45-3.78,37.59-9,13.19,10,23.2,25.67,27.77,44.21a72.73,72.73,0,0,0,4.88-26.37C716.34,345.68,686.47,322,649.63,322Z"/><path class="cls-10" d="M703,441.82a114.09,114.09,0,0,1-5,32.47,16.7,16.7,0,1,1,5-32.47Z"/><path class="cls-10" d="M607.43,477a16.63,16.63,0,0,1-6.45,1c-3.67-9.14-5.84-19.84-6.45-31.72a14.75,14.75,0,0,1,1.63-.69A16.7,16.7,0,1,1,607.43,477Z"/><path class="cls-15" d="M711,458c0,29.23-36.49,63.7-61.64,63.7s-61.63-33.6-61.63-62.83a32.56,32.56,0,0,1,6.58-19.73c.21,18.37,9.55,33.14,21,33.14,4.47,0,8.61-2.23,12-6.05a26.6,26.6,0,0,1,3.57-5.07,24.76,24.76,0,0,1,18.41-8.32A24.51,24.51,0,0,1,665,458.49h0a26.35,26.35,0,0,1,7.57,10.23,14.83,14.83,0,0,0,9.38,3.56c11.63,0,21.06-15.13,21.06-33.81,0-.63,0-1.25,0-1.86A32.07,32.07,0,0,1,711,458Z"/><path class="cls-16" d="M649.46,473.17l17.28-.45c0,5.93-7.8,10.78-17.28,10.78s-17.29-4.85-17.16-10.74v.41Z"/><path class="cls-9" d="M566.56,424.22c0,7.87,10.43,12.85,18.37,12.85a14.31,14.31,0,0,0,14.37-14.24c0-7.87-15.47-19.28-23.41-19.28S566.56,416.35,566.56,424.22Z"/><path class="cls-10" d="M590.42,431.34s-.71-19.47-11-16.76"/><path class="cls-9" d="M734.55,424.22c0,7.87-10.42,12.85-18.36,12.85a14.31,14.31,0,0,1-14.38-14.24c0-7.87,15.47-19.28,23.41-19.28S734.55,416.35,734.55,424.22Z"/><path class="cls-10" d="M710.69,431.34s.71-19.47,11-16.76"/><polyline class="cls-10" points="653.3 424.6 657.81 448.18 649.46 449.49 643.64 449.49 649.46 424.6"/><path class="cls-7" d="M635.27,421.11a23,23,0,0,1-23,23c-.6,0-1.2,0-1.79-.07h0a23,23,0,0,1-2.86-45.42,22.32,22.32,0,0,1,4.66-.48c.77,0,1.53,0,2.29.11a22.86,22.86,0,0,1,8.41,2.53,23.24,23.24,0,0,1,5.17,3.71A23,23,0,0,1,635.27,421.11Z"/><path class="cls-17" d="M633.33,422.1s16.4-17.34,31.49.55"/><path class="cls-9" d="M993.89,751.44a7.85,7.85,0,0,1-13.82-3.52v0c-2.62-14.17-7.82-33.27-16.53-31,0,0,1.34,62.75-15.54,87-8,11.47-26,5.71-26-8.27V716.9s-18.28,19.19-21.28,86.33c0,0-16.19,30.58-35.37,3a331.68,331.68,0,0,1-1.51-40.74c.31-11.31,1.38-23.3,3.9-33.54,1.88-7.67,4.58-14.36,8.38-19.06h0l0,0h0c-.64.39-22.22,13.89-25.17,26.55,0,0-1.07,29.9-11.3,41.26,0,0,0,0,0,0a13.66,13.66,0,0,1-3.87,3.08l-.34.17a11,11,0,0,1-7.46.67,14.75,14.75,0,0,1-11.17-14.42v-34.8a43.27,43.27,0,0,1,9.86-27.49l14.12-17.14s23.38-29,46.76-14c0,0,21-21.18,36-4.29,0,0,18.49-20.36,28.18-6.54,0,0,24-11.95,34.17,22.23C985.81,688.13,1018.76,720.6,993.89,751.44Z"/><path class="cls-10" d="M980.49,747.89c-2.64-14.2-7.84-33.34-16.57-31l-1.46-18.16C976.88,697.54,980.38,746.39,980.49,747.89Z"/><path class="cls-10" d="M922.41,795.7V716.85s-18.31,19.22-21.31,86.5c-12.05-92.67,27-95.8,27-95.8C924.9,710.56,922.41,795.7,922.41,795.7Z"/><path class="cls-10" d="M884.27,691.94c-.63.39-5,8.18-8,20.87-.64.39-22.26,13.92-25.22,26.6,0,0-1.08,30-11.32,41.34l0,0a17.28,17.28,0,0,1-3.88,3.08l-.34.17c.7-14.72,8.09-45.52,8.09-45.52C856,717.21,883.66,692.06,884.27,691.94Z"/><path class="cls-9" d="M325.36,751.44a7.85,7.85,0,0,0,13.82-3.52v0c2.63-14.17,7.82-33.27,16.54-31,0,0-1.35,62.75,15.54,87,8,11.47,26,5.71,26-8.27V716.9s18.28,19.19,21.27,86.33c0,0,16.19,30.58,35.38,3a331.68,331.68,0,0,0,1.51-40.74c-.32-11.31-1.39-23.3-3.9-33.54-1.88-7.67-4.58-14.36-8.38-19.06h0l0,0h0c.63.39,22.21,13.89,25.17,26.55,0,0,1.07,29.9,11.29,41.26l0,0a13.7,13.7,0,0,0,3.88,3.08l.33.16a11,11,0,0,0,7.47.68,14.75,14.75,0,0,0,11.17-14.42v-34.8a43.22,43.22,0,0,0-9.87-27.49l-14.11-17.14s-23.38-29-46.77-14c0,0-21-21.18-36-4.29,0,0-18.49-20.36-28.17-6.54,0,0-24-11.95-34.18,22.23C333.43,688.13,300.49,720.6,325.36,751.44Z"/><path class="cls-10" d="M339,747.89c2.63-14.2,7.84-33.34,16.57-31L357,698.69C342.62,697.54,339.12,746.39,339,747.89Z"/><path class="cls-10" d="M397.29,795.7V716.85s18.31,19.22,21.32,86.5c12-92.67-27-95.8-27-95.8C394.8,710.56,397.29,795.7,397.29,795.7Z"/><path class="cls-10" d="M435.23,691.94c.64.39,5,8.18,8,20.87.63.39,22.25,13.92,25.21,26.6,0,0,1.08,30,11.32,41.34l0,0a17.28,17.28,0,0,0,3.88,3.08l.34.17c-.7-14.72-8.08-45.52-8.08-45.52C463.51,717.21,435.85,692.06,435.23,691.94Z"/><path class="cls-18" d="M614.48,398.34l-17.79,39.84a22.73,22.73,0,0,1-4.19-5.12l15-34.35a22.49,22.49,0,0,1,4.67-.48C613,398.23,613.73,398.27,614.48,398.34Z"/><path class="cls-18" d="M628.15,404.47,610.49,444h0a22.88,22.88,0,0,1-5.88-1.24l18.38-42A23.24,23.24,0,0,1,628.15,404.47Z"/><path class="cls-7" d="M709.46,422.47a23,23,0,0,1-23,23c-.6,0-1.2,0-1.79-.07h0A23,23,0,0,1,681.81,400a22.32,22.32,0,0,1,4.66-.48,21.81,21.81,0,0,1,2.29.11,23,23,0,0,1,20.7,22.87Z"/><path class="cls-18" d="M688.67,399.74l-17.79,39.84a22.79,22.79,0,0,1-4.19-5.13l15-34.35a23.19,23.19,0,0,1,4.67-.48A21.48,21.48,0,0,1,688.67,399.74Z"/><path class="cls-18" d="M702.34,405.84l-17.66,39.55h0a22.87,22.87,0,0,1-5.89-1.25l18.38-42A22.92,22.92,0,0,1,702.34,405.84Z"/><path class="cls-19" d="M710.15,521.71c0,23.45-24.65,42.47-55.07,42.47S600,545.16,600,521.71a33.31,33.31,0,0,1,.3-4.49,52.26,52.26,0,0,1,13.87,9.63s45.52,25.58,72.48-5.48a118,118,0,0,1,22.74-6.75A33.4,33.4,0,0,1,710.15,521.71Z"/><g class="cls-20"><polygon class="cls-21" points="886.13 505.96 701.9 788.79 976.8 788.79 1161.03 505.96 886.13 505.96"/><path class="cls-22" d="M886.23,504.83h276.18L976.69,789.93H700.51Zm273,2.73H886.1L703.64,787.65H976.83Z"/><polygon class="cls-22" points="886.15 506.19 869.93 531.24 1144.7 531.24 1160.92 506.19 886.15 506.19"/><path class="cls-22" d="M886.2,504.83h276.37l-17.92,27.32H868.28Zm273.25,2.73H885.94l-14.53,22.31h273.5Z"/><path class="cls-22" d="M1138.36,518.76c-2.26,3.46-2.36,6.26-.24,6.26s5.67-2.8,7.93-6.26,2.36-6.27.24-6.27S1140.62,515.29,1138.36,518.76Z"/><path class="cls-22" d="M1122.67,518.76c-2.26,3.46-2.36,6.26-.24,6.26s5.67-2.8,7.92-6.26,2.37-6.27.24-6.27S1124.92,515.29,1122.67,518.76Z"/><path class="cls-22" d="M1107,518.76c-2.26,3.46-2.37,6.26-.24,6.26s5.67-2.8,7.92-6.26,2.37-6.27.24-6.27S1109.23,515.29,1107,518.76Z"/><polygon class="cls-22" points="1084.56 585.44 1092.96 585.44 1096.23 580.43 1087.82 580.43 1084.56 585.44"/><polygon class="cls-22" points="946.92 585.44 1078.77 585.44 1081.94 580.43 950.09 580.43 946.92 585.44"/><polygon class="cls-22" points="926.12 585.44 942.09 585.44 945.35 580.43 929.38 580.43 926.12 585.44"/><polygon class="cls-22" points="858.91 650.57 874.89 650.57 878.16 645.55 862.17 645.55 858.91 650.57"/><polygon class="cls-22" points="870.75 585.44 923.03 585.44 926.2 580.43 873.92 580.43 870.75 585.44"/><polygon class="cls-22" points="1067.91 598.64 1076.32 598.64 1079.59 593.63 1071.17 593.63 1067.91 598.64"/><polygon class="cls-22" points="1000.89 598.64 1062.34 598.64 1065.51 593.63 1004.05 593.63 1000.89 598.64"/><polygon class="cls-22" points="877.98 650.57 901.94 650.57 905.21 645.55 881.24 645.55 877.98 650.57"/><polygon class="cls-22" points="986.17 637.36 1044.87 637.36 1048.03 632.35 989.34 632.35 986.17 637.36"/><polygon class="cls-22" points="1012.02 611.4 1054.43 611.4 1057.7 606.39 1015.28 606.39 1012.02 611.4"/><polygon class="cls-22" points="864.92 624.61 906.11 624.61 909.27 619.6 868.09 619.6 864.92 624.61"/><polygon class="cls-22" points="904.15 611.4 1008.11 611.4 1011.28 606.39 907.31 606.39 904.15 611.4"/><polygon class="cls-22" points="906.95 650.57 1036.39 650.57 1039.56 645.55 910.11 645.55 906.95 650.57"/><polygon class="cls-22" points="848.27 598.64 916.28 598.64 919.45 593.63 851.43 593.63 848.27 598.64"/><polygon class="cls-22" points="919.65 598.64 997.03 598.64 1000.19 593.63 922.82 593.63 919.65 598.64"/><polygon class="cls-22" points="848.71 611.4 875.93 611.4 879.19 606.39 851.97 606.39 848.71 611.4"/><polygon class="cls-22" points="1059.44 611.4 1067.85 611.4 1071.11 606.39 1062.7 606.39 1059.44 611.4"/><polygon class="cls-22" points="1059.12 624.61 1067.53 624.61 1070.8 619.6 1062.38 619.6 1059.12 624.61"/><polygon class="cls-22" points="1005.1 624.61 1053.34 624.61 1056.51 619.6 1008.26 619.6 1005.1 624.61"/><polygon class="cls-22" points="971.71 663.77 1019.96 663.77 1023.12 658.76 974.87 658.76 971.71 663.77"/><polygon class="cls-22" points="821.15 676.52 883.3 676.52 886.47 671.51 824.32 671.51 821.15 676.52"/><polygon class="cls-22" points="881.2 663.77 967.79 663.77 970.96 658.76 884.37 658.76 881.2 663.77"/><polygon class="cls-22" points="887.52 676.52 967.84 676.52 971.01 671.51 890.69 671.51 887.52 676.52"/><polygon class="cls-22" points="997.25 676.52 1011.64 676.52 1014.9 671.51 1000.51 671.51 997.25 676.52"/><polygon class="cls-22" points="892.49 637.36 982.85 637.36 986.01 632.35 895.66 632.35 892.49 637.36"/><polygon class="cls-22" points="830.47 637.36 889.12 637.36 892.29 632.35 833.63 632.35 830.47 637.36"/><polygon class="cls-22" points="909.9 624.61 1000.19 624.61 1003.36 619.6 913.07 619.6 909.9 624.61"/><polygon class="cls-22" points="1050.64 637.36 1059.06 637.36 1062.32 632.35 1053.91 632.35 1050.64 637.36"/><polygon class="cls-22" points="1042.16 650.57 1050.58 650.57 1053.85 645.55 1045.43 645.55 1042.16 650.57"/><polygon class="cls-22" points="1025.53 663.77 1033.93 663.77 1037.2 658.76 1028.79 658.76 1025.53 663.77"/><polygon class="cls-22" points="1017.05 676.52 1025.46 676.52 1028.72 671.51 1020.31 671.51 1017.05 676.52"/><polygon class="cls-22" points="1018.11 687.46 1026.53 687.46 1029.79 682.45 1021.38 682.45 1018.11 687.46"/><polygon class="cls-22" points="916.61 687.46 1012.34 687.46 1015.5 682.45 919.78 682.45 916.61 687.46"/><polygon class="cls-22" points="1001.47 700.66 1009.88 700.66 1013.14 695.65 1004.74 695.65 1001.47 700.66"/><polygon class="cls-22" points="934.44 700.66 995.9 700.66 999.06 695.65 937.61 695.65 934.44 700.66"/><polygon class="cls-22" points="919.73 739.38 978.42 739.38 981.59 734.37 922.89 734.37 919.73 739.38"/><polygon class="cls-22" points="945.58 713.41 987.99 713.41 991.25 708.41 948.84 708.41 945.58 713.41"/><polygon class="cls-22" points="837.7 713.41 941.67 713.41 944.84 708.41 840.87 708.41 837.7 713.41"/><polygon class="cls-22" points="840.51 752.58 969.95 752.58 973.12 747.57 843.67 747.57 840.51 752.58"/><polygon class="cls-22" points="781.83 700.66 849.84 700.66 853 695.65 785 695.65 781.83 700.66"/><polygon class="cls-22" points="853.21 700.66 930.58 700.66 933.75 695.65 856.38 695.65 853.21 700.66"/><polygon class="cls-22" points="782.26 713.41 809.49 713.41 812.75 708.41 785.53 708.41 782.26 713.41"/><polygon class="cls-22" points="993 713.41 1001.41 713.41 1004.67 708.41 996.26 708.41 993 713.41"/><polygon class="cls-22" points="992.68 726.62 1001.09 726.62 1004.35 721.61 995.95 721.61 992.68 726.62"/><polygon class="cls-22" points="938.65 726.62 986.9 726.62 990.07 721.61 941.82 721.61 938.65 726.62"/><polygon class="cls-22" points="826.05 739.38 916.41 739.38 919.57 734.37 829.22 734.37 826.05 739.38"/><polygon class="cls-22" points="843.46 726.62 933.75 726.62 936.92 721.61 846.62 721.61 843.46 726.62"/><polygon class="cls-22" points="984.21 739.38 992.61 739.38 995.88 734.37 987.47 734.37 984.21 739.38"/><path class="cls-22" d="M1104.85,563.38,1105,559a2.85,2.85,0,0,1,1.07-1.65c.56-.44,1-.44,1,0l-.25,5.21a.3.3,0,0,1,0,.13s0,0,0,0,0,.11,0,.17,0,0,0,0,0,.09-.07.15,0,0,0,.07l-.08.13a.41.41,0,0,0,0,.09l-.09.11-.08.13a.39.39,0,0,0-.08.09l-.09.11-.08.07-.13.15a.15.15,0,0,0-.06,0,.32.32,0,0,1-.13.11l-6.54,5.21a1.31,1.31,0,0,1-.73.32c-.17,0-.27-.1-.27-.32a2.76,2.76,0,0,1,1.07-1.65Z"/><path class="cls-22" d="M1094.93,569.66a.71.71,0,0,1-.27.07c-.24,0-.33-.22-.18-.6l4.21-10.67a2.69,2.69,0,0,1,1.16-1.3c.47-.22.67,0,.47.53l-4.19,10.65A2.87,2.87,0,0,1,1094.93,569.66Z"/><path class="cls-22" d="M1089.67,563.88s0,0,0,0,0-.1.07-.17,0,0,0,0l.09-.15a.41.41,0,0,0,.05-.09l.07-.09.08-.13,0,0,.14-.17,0,0,.17-.16s0,0,0,0,.11-.09.17-.12l6.54-5.21c.56-.44,1-.44,1,0a2.75,2.75,0,0,1-1.07,1.65l-5.49,4.36-.2,4.37a2.72,2.72,0,0,1-1.07,1.64,1.26,1.26,0,0,1-.71.33.28.28,0,0,1-.29-.33l.24-5.2a.57.57,0,0,1,0-.13s0,0,0,0A1.28,1.28,0,0,0,1089.67,563.88Z"/></g><g class="cls-20"><polygon class="cls-21" points="467.79 526.91 659.04 837.98 373.66 837.98 182.4 526.91 467.79 526.91"/><path class="cls-23" d="M660.65,839.57H373.73L180.8,525.78H467.71Zm-287-3.19H657.09L467.79,528.51H184.36Z"/><polygon class="cls-23" points="467.49 527.14 484.29 554.47 199.65 554.47 182.85 527.14 467.49 527.14"/><path class="cls-23" d="M486.31,555.83H199.43l-18.6-30.05H467.71ZM198.88,553.1h284.5l-15.12-24.59H183.76Z"/><path class="cls-23" d="M206,541c2.34,3.81,2.45,6.89.24,6.89s-5.88-3.08-8.22-6.89-2.45-6.89-.25-6.89S203.62,537.2,206,541Z"/><path class="cls-23" d="M222.25,541c2.34,3.81,2.45,6.89.25,6.89s-5.88-3.08-8.22-6.89-2.45-6.89-.25-6.89S219.92,537.2,222.25,541Z"/><path class="cls-23" d="M238.54,541c2.34,3.81,2.45,6.89.25,6.89s-5.89-3.08-8.23-6.89-2.45-6.89-.25-6.89S236.2,537.2,238.54,541Z"/><polygon class="cls-23" points="261.76 614.59 253.11 614.59 249.75 609.12 258.4 609.12 261.76 614.59"/><polygon class="cls-23" points="404.68 614.59 267.81 614.59 264.53 609.12 401.39 609.12 404.68 614.59"/><polygon class="cls-23" points="426.18 614.59 409.75 614.59 406.39 609.12 422.83 609.12 426.18 614.59"/><polygon class="cls-23" points="495.95 686.09 479.5 686.09 476.14 680.62 492.59 680.62 495.95 686.09"/><polygon class="cls-23" points="484.36 614.59 428.94 614.59 425.58 609.12 481 609.12 484.36 614.59"/><polygon class="cls-23" points="279.04 628.7 270.38 628.7 267.02 623.24 275.68 623.24 279.04 628.7"/><polygon class="cls-23" points="348.67 628.7 284.88 628.7 281.59 623.24 345.38 623.24 348.67 628.7"/><polygon class="cls-23" points="476.12 686.09 451.46 686.09 448.1 680.62 472.76 680.62 476.12 686.09"/><polygon class="cls-23" points="363.94 671.51 303.01 671.51 299.73 666.05 360.65 666.05 363.94 671.51"/><polygon class="cls-23" points="336.93 642.82 293.24 642.82 289.88 637.36 333.57 637.36 336.93 642.82"/><polygon class="cls-23" points="490.3 657.4 446.61 657.4 443.25 651.93 486.94 651.93 490.3 657.4"/><polygon class="cls-23" points="449.08 642.82 341.16 642.82 337.87 637.36 445.79 637.36 449.08 642.82"/><polygon class="cls-23" points="446.17 686.09 311.81 686.09 308.52 680.62 442.88 680.62 446.17 686.09"/><polygon class="cls-23" points="507.08 628.7 436.49 628.7 433.2 623.24 503.79 623.24 507.08 628.7"/><polygon class="cls-23" points="432.98 628.7 352.67 628.7 349.38 623.24 429.7 623.24 432.98 628.7"/><polygon class="cls-23" points="506.5 642.82 478.46 642.82 475.1 637.36 503.14 637.36 506.5 642.82"/><polygon class="cls-23" points="287.84 642.82 279.18 642.82 275.82 637.36 284.48 637.36 287.84 642.82"/><polygon class="cls-23" points="288.17 657.4 279.51 657.4 276.15 651.93 284.81 651.93 288.17 657.4"/><polygon class="cls-23" points="344.89 657.4 293.69 657.4 290.34 651.93 341.52 651.93 344.89 657.4"/><polygon class="cls-23" points="379.55 700.21 328.36 700.21 325 694.74 376.18 694.74 379.55 700.21"/><polygon class="cls-23" points="535.23 714.78 470.72 714.78 467.43 709.32 531.94 709.32 535.23 714.78"/><polygon class="cls-23" points="472.9 700.21 383.02 700.21 379.73 694.74 469.61 694.74 472.9 700.21"/><polygon class="cls-23" points="466.33 714.78 382.96 714.78 379.67 709.32 463.05 709.32 466.33 714.78"/><polygon class="cls-23" points="352.37 714.78 337.55 714.78 334.19 709.32 349.01 709.32 352.37 714.78"/><polygon class="cls-23" points="461.18 671.51 367.39 671.51 364.1 666.05 457.89 666.05 461.18 671.51"/><polygon class="cls-23" points="525.56 671.51 464.68 671.51 461.39 666.05 522.27 666.05 525.56 671.51"/><polygon class="cls-23" points="443.11 657.4 349.38 657.4 346.1 651.93 439.82 651.93 443.11 657.4"/><polygon class="cls-23" points="296.97 671.51 288.31 671.51 284.94 666.05 293.61 666.05 296.97 671.51"/><polygon class="cls-23" points="305.77 686.09 297.11 686.09 293.74 680.62 302.41 680.62 305.77 686.09"/><polygon class="cls-23" points="323.04 700.21 314.38 700.21 311.02 694.74 319.68 694.74 323.04 700.21"/><polygon class="cls-23" points="331.84 714.78 323.18 714.78 319.82 709.32 328.48 709.32 331.84 714.78"/><polygon class="cls-23" points="330.74 726.62 322.07 726.62 318.71 721.16 327.37 721.16 330.74 726.62"/><polygon class="cls-23" points="436.14 726.62 336.78 726.62 333.49 721.16 432.86 721.16 436.14 726.62"/><polygon class="cls-23" points="348.01 740.74 339.35 740.74 335.99 735.28 344.65 735.28 348.01 740.74"/><polygon class="cls-23" points="417.63 740.74 353.84 740.74 350.55 735.28 414.34 735.28 417.63 740.74"/><polygon class="cls-23" points="433.59 784.01 371.36 784.01 368.01 778.54 430.24 778.54 433.59 784.01"/><polygon class="cls-23" points="405.89 755.32 362.2 755.32 358.84 749.85 402.53 749.85 405.89 755.32"/><polygon class="cls-23" points="518.04 755.32 410.13 755.32 406.84 749.85 514.76 749.85 518.04 755.32"/><polygon class="cls-23" points="515.14 798.13 380.78 798.13 377.49 792.66 511.85 792.66 515.14 798.13"/><polygon class="cls-23" points="576.04 740.74 505.45 740.74 502.16 735.28 572.76 735.28 576.04 740.74"/><polygon class="cls-23" points="501.95 740.74 421.64 740.74 418.35 735.28 498.66 735.28 501.95 740.74"/><polygon class="cls-23" points="575.47 755.32 547.43 755.32 544.07 749.85 572.11 749.85 575.47 755.32"/><polygon class="cls-23" points="356.81 755.32 348.15 755.32 344.79 749.85 353.45 749.85 356.81 755.32"/><polygon class="cls-23" points="357.13 769.43 348.47 769.43 345.11 763.97 353.77 763.97 357.13 769.43"/><polygon class="cls-23" points="413.85 769.43 362.66 769.43 359.3 763.97 410.49 763.97 413.85 769.43"/><polygon class="cls-23" points="530.14 784.01 436.35 784.01 433.07 778.54 526.86 778.54 530.14 784.01"/><polygon class="cls-23" points="512.07 769.43 418.35 769.43 415.06 763.97 508.79 763.97 512.07 769.43"/><polygon class="cls-23" points="365.93 784.01 357.27 784.01 353.92 778.54 362.57 778.54 365.93 784.01"/><path class="cls-23" d="M246.45,594.89a3.06,3.06,0,0,1,1.12,1.8c0,.25-.1.36-.29.36a1.28,1.28,0,0,1-.76-.36L239.73,591a.36.36,0,0,1-.13-.12.11.11,0,0,0-.06,0,.91.91,0,0,1-.13-.16.26.26,0,0,1-.09-.09.59.59,0,0,0-.09-.11c0-.06-.08-.08-.09-.1l-.09-.15s-.05-.05-.08-.11l-.05-.1a1.19,1.19,0,0,1-.09-.15s0-.05,0-.08-.05-.1-.07-.16,0,0,0,0-.05-.14-.05-.18,0,0,0,0a.23.23,0,0,1,0-.14l-.26-5.73c0-.48.47-.48,1.05,0a3.1,3.1,0,0,1,1.11,1.81l.2,4.81Z"/><path class="cls-23" d="M249.81,595.53l-4.35-11.72c-.21-.56,0-.82.49-.58a2.94,2.94,0,0,1,1.2,1.43l4.37,11.73c.15.43.06.67-.19.67a.6.6,0,0,1-.28-.08A3,3,0,0,1,249.81,595.53Z"/><path class="cls-23" d="M256.56,590.81s0,0,0,0a.66.66,0,0,1,0,.14l.26,5.73c0,.24-.11.36-.3.36a1.28,1.28,0,0,1-.74-.36,3,3,0,0,1-1.11-1.81l-.2-4.8-5.71-4.8a3.13,3.13,0,0,1-1.11-1.81c0-.49.46-.49,1,0l6.79,5.72.17.14s0,0,0,0a2.38,2.38,0,0,1,.17.19l0,0a1.77,1.77,0,0,0,.15.18l.05.06a1,1,0,0,0,.08.14.3.3,0,0,1,.07.1s0,.08.06.1a1.4,1.4,0,0,0,.1.16s0,0,0,0a1.78,1.78,0,0,0,.08.18s0,0,0,.06A.54.54,0,0,0,256.56,590.81Z"/></g><rect class="cls-24" x="758.45" y="391.19" width="60.57" height="13.66"/><rect class="cls-25" x="758.45" y="411.23" width="89.72" height="13.66"/><polygon class="cls-26" points="443.76 417.23 471.66 373.33 544.77 511.35 443.76 417.23"/><polygon class="cls-26" points="521.1 410.8 544.77 398.31 559.77 486.91 521.1 410.8"/><polygon class="cls-27" points="925.45 332.72 914.18 315.79 872.02 369.48 925.45 332.72"/><polygon class="cls-28" points="584.25 297.87 584.25 327.88 558.87 312.88 584.25 297.87"/><circle class="cls-25" cx="600.75" cy="312.88" r="10.44"/><rect class="cls-29" x="104.45" y="618" width="1083.48" height="265.06"/><line class="cls-30" x1="848.17" y1="485.47" x2="870.04" y2="485.47"/><line class="cls-30" x1="883.24" y1="485.47" x2="905.1" y2="485.47"/><line class="cls-30" x1="874.49" y1="495.03" x2="880.05" y2="473.97"/><line class="cls-30" x1="914.22" y1="482.58" x2="910.04" y2="489.32"/><line class="cls-30" x1="779.14" y1="350.91" x2="784.69" y2="329.85"/><line class="cls-30" x1="789.12" y1="348.55" x2="774.71" y2="332.21"/><line class="cls-30" x1="225.95" y1="682.1" x2="231.51" y2="661.03"/><line class="cls-30" x1="235.94" y1="679.73" x2="221.53" y2="663.39"/><path class="cls-25" d="M413.51,470a1.82,1.82,0,0,1-1.76-2.29l5.56-21.06a1.82,1.82,0,1,1,3.52.93l-5.55,21.06A1.83,1.83,0,0,1,413.51,470Z"/><path class="cls-21" d="M423.5,467.58a1.84,1.84,0,0,1-1.37-.61l-14.41-16.34a1.82,1.82,0,1,1,2.73-2.42l14.41,16.34a1.82,1.82,0,0,1-1.36,3Z"/><path class="cls-31" d="M491.49,335.67a1.89,1.89,0,0,1-.47-.06,1.81,1.81,0,0,1-1.29-2.23l5.55-21.06a1.83,1.83,0,0,1,3.53.93l-5.56,21.06A1.83,1.83,0,0,1,491.49,335.67Z"/><path class="cls-31" d="M501.48,333.31a1.81,1.81,0,0,1-1.37-.62L485.7,316.35a1.82,1.82,0,1,1,2.73-2.41l14.41,16.34a1.83,1.83,0,0,1-.16,2.57A1.81,1.81,0,0,1,501.48,333.31Z"/><path class="cls-31" d="M1078.56,710.36a1.88,1.88,0,0,1-.46-.06,1.83,1.83,0,0,1-1.3-2.23l5.56-21.06a1.82,1.82,0,1,1,3.52.93L1080.33,709A1.83,1.83,0,0,1,1078.56,710.36Z"/><path class="cls-31" d="M1088.55,708a1.83,1.83,0,0,1-1.36-.61L1072.78,691a1.82,1.82,0,0,1,2.73-2.42L1089.92,705a1.83,1.83,0,0,1-.16,2.57A1.85,1.85,0,0,1,1088.55,708Z"/><path class="cls-31" d="M202.34,714.88a1.79,1.79,0,0,1-1.76-2.28l5.56-21.07a1.82,1.82,0,0,1,3.52.93l-5.55,21.07A1.82,1.82,0,0,1,202.34,714.88Z"/><path class="cls-31" d="M212.33,712.52a1.83,1.83,0,0,1-1.36-.61l-14.41-16.34a1.82,1.82,0,1,1,2.73-2.42l14.41,16.34a1.82,1.82,0,0,1-1.37,3Z"/><circle class="cls-4" cx="696.13" cy="249.38" r="9.66"/><circle class="cls-4" cx="718.18" cy="249.38" r="9.66"/><circle class="cls-25" cx="740.24" cy="249.38" r="9.66"/><circle class="cls-4" cx="762.3" cy="249.38" r="9.66"/></g></g></svg>