<svg id="Layer_1" data-name="Layer 1" xmlns="http://www.w3.org/2000/svg" xmlns:xlink="http://www.w3.org/1999/xlink" viewBox="0 0 340.73 254.32"><defs><style>.cls-1,.cls-14,.cls-17,.cls-28,.cls-30,.cls-31{fill:none;}.cls-2{clip-path:url(#clip-path);}.cls-3{clip-path:url(#clip-path-2);}.cls-4{fill:#152f46;}.cls-5{fill:#19354d;opacity:0.3;}.cls-18,.cls-26,.cls-27,.cls-5{isolation:isolate;}.cls-6{fill:#051630;}.cls-18,.cls-7{fill:#c8f2fe;}.cls-8{fill:#0f2034;}.cls-9{fill:#e687a9;}.cls-10{fill:#fd8f8e;}.cls-11{fill:#202135;}.cls-12{fill:#274964;}.cls-13{fill:#1a364e;}.cls-14{stroke:#fff;}.cls-14,.cls-17,.cls-22,.cls-23,.cls-28,.cls-30,.cls-31{stroke-miterlimit:10;}.cls-14,.cls-30{stroke-width:8px;}.cls-15{fill:#171926;}.cls-16,.cls-22,.cls-23{fill:#fff;}.cls-17,.cls-31{stroke:#c8f2fe;}.cls-17{stroke-width:5.3px;}.cls-18,.cls-27{opacity:0.5;}.cls-19{fill:#1c2340;}.cls-20{opacity:0.82;}.cls-21{fill:#3cdff0;}.cls-22,.cls-23{stroke:#231f20;}.cls-22{stroke-width:1.09px;}.cls-23{stroke-width:1.16px;}.cls-24{fill:#114b79;}.cls-25,.cls-26,.cls-27{fill:#1d6e83;}.cls-26{opacity:0.21;}.cls-28{stroke:#114b79;stroke-width:3.26px;}.cls-29{fill:url(#linear-gradient);}.cls-30{stroke:#f9f4f5;stroke-linecap:round;}</style><clipPath id="clip-path" transform="translate(-497.55 -396.46)"><circle class="cls-1" cx="661" cy="517" r="86"/></clipPath><clipPath id="clip-path-2" transform="translate(-497.55 -396.46)"><rect class="cls-1" x="524.78" y="427.18" width="263.55" height="176.45"/></clipPath><linearGradient id="linear-gradient" x1="412.95" y1="1720.05" x2="413.74" y2="1639.27" gradientTransform="matrix(1, 0, 0, -1, -253.55, 1857.54)" gradientUnits="userSpaceOnUse"><stop offset="0" stop-color="#3cdff0" stop-opacity="0"/><stop offset="1" stop-color="#3cdff0"/></linearGradient></defs><title>coder illustration-01</title><g class="cls-2"><g class="cls-3"><rect class="cls-4" x="25.44" y="31.84" width="264.56" height="175.33"/><polygon class="cls-5" points="6.92 85.09 96.83 0 147.05 21.68 296.37 230.52 0 78.98 6.92 85.09"/><polyline class="cls-5" points="254.16 12.66 340.73 21.96 156.8 254.32"/><circle class="cls-6" cx="160.59" cy="126.67" r="93.1"/><circle class="cls-6" cx="165.23" cy="126.91" r="93.1"/><path class="cls-7" d="M707.19,563.73H610.87v-40.4A15.12,15.12,0,0,1,626,508.21h66.08a15.12,15.12,0,0,1,15.12,15.12Z" transform="translate(-497.55 -396.46)"/><path class="cls-8" d="M707.19,564.74H609.75V524.43A15.21,15.21,0,0,1,625,509.22h67a15.21,15.21,0,0,1,15.21,15.21v40.31Z" transform="translate(-497.55 -396.46)"/><path class="cls-7" d="M680.22,505.62H637.73V484.28a7.2,7.2,0,0,1,7.21-7.2H673a7.2,7.2,0,0,1,7.21,7.2Z" transform="translate(-497.55 -396.46)"/><path class="cls-8" d="M680.22,505.62h-43.5V485.14a7.17,7.17,0,0,1,7.17-7.17h29.16a7.17,7.17,0,0,1,7.17,7.17Z" transform="translate(-497.55 -396.46)"/><rect class="cls-9" x="153" y="113.1" width="14.39" height="13.04"/><polygon class="cls-10" points="167.43 119.61 156.09 126.14 153 126.14 153 116.58 167.43 119.61"/><path class="cls-7" d="M737.09,566.53l-124.37,2.26-34.93-2s12.06-31.34,45.13-43.74c0,0,13.92-11.64,24.44-6.66a13,13,0,0,1,3.42,2.38s11.23,6.31,17.89-1.36a29,29,0,0,1,5.61-1.66c4.83-.93,11.68-1,16,4.37,0,0,45.54,22.32,46,36.3Z" transform="translate(-497.55 -396.46)"/><path class="cls-11" d="M735.75,567.22l-124.36,2.26-34.94-2s12.06-31.34,45.13-43.74c0,0,13.92-11.64,24.44-6.66a13.21,13.21,0,0,1,3.42,2.38s11.24,6.31,17.89-1.35a29.37,29.37,0,0,1,5.61-1.67c4.83-.93,11.68-1,16,4.37,0,0,45.54,22.32,46,36.3Z" transform="translate(-497.55 -396.46)"/><path class="cls-12" d="M791,603.63H523V545.81l96.27,16.24a225.42,225.42,0,0,0,74.75,0l97-16.27v57.82Z" transform="translate(-497.55 -396.46)"/><path class="cls-7" d="M667,575.08h-5.87a1.62,1.62,0,0,1-1.61-1.62v-3.73a1.62,1.62,0,0,1,1.61-1.62H667a1.62,1.62,0,0,1,1.62,1.62v3.73A1.62,1.62,0,0,1,667,575.08Z" transform="translate(-497.55 -396.46)"/><path class="cls-7" d="M679.12,575.08h-5.89a1.9,1.9,0,0,1-1.81-1.69l-.43-3.93a1.46,1.46,0,0,1,1.44-1.69h5.89a1.9,1.9,0,0,1,1.81,1.69l.43,3.93A1.47,1.47,0,0,1,679.12,575.08Z" transform="translate(-497.55 -396.46)"/><path class="cls-7" d="M681.19,583.73h-6.33a2,2,0,0,1-1.94-1.69l-.46-3.92a1.49,1.49,0,0,1,1.54-1.69h6.33a2,2,0,0,1,1.95,1.69l.46,3.92A1.49,1.49,0,0,1,681.19,583.73Z" transform="translate(-497.55 -396.46)"/><path class="cls-7" d="M683,592.05h-6.64a2.06,2.06,0,0,1-2-1.69l-.48-3.92a1.53,1.53,0,0,1,1.62-1.7h6.64a2,2,0,0,1,2,1.7l.49,3.92A1.53,1.53,0,0,1,683,592.05Z" transform="translate(-497.55 -396.46)"/><path class="cls-7" d="M684.61,601h-7.13a2.16,2.16,0,0,1-2.19-1.69l-.52-3.92a1.57,1.57,0,0,1,1.74-1.69h7.13a2.15,2.15,0,0,1,2.19,1.69l.52,3.92A1.58,1.58,0,0,1,684.61,601Z" transform="translate(-497.55 -396.46)"/><path class="cls-7" d="M668,583.73h-7.08A1.74,1.74,0,0,1,659.2,582V578.5a1.74,1.74,0,0,1,1.74-1.74H668a1.74,1.74,0,0,1,1.74,1.74V582A1.74,1.74,0,0,1,668,583.73Z" transform="translate(-497.55 -396.46)"/><path class="cls-7" d="M669.17,592.39h-8a1.83,1.83,0,0,1-1.83-1.84v-3.3a1.83,1.83,0,0,1,1.83-1.83h8a1.83,1.83,0,0,1,1.83,1.83v3.3A1.83,1.83,0,0,1,669.17,592.39Z" transform="translate(-497.55 -396.46)"/><path class="cls-7" d="M670.2,601h-9a1.92,1.92,0,0,1-1.92-1.92V596a1.92,1.92,0,0,1,1.92-1.92h9a1.92,1.92,0,0,1,1.92,1.92v3.13A1.92,1.92,0,0,1,670.2,601Z" transform="translate(-497.55 -396.46)"/><path class="cls-7" d="M690.21,574.85h-5.86a1.71,1.71,0,0,1-1.69-1.61l-.17-3.74a1.53,1.53,0,0,1,1.55-1.61h5.86a1.71,1.71,0,0,1,1.69,1.61l.17,3.74A1.53,1.53,0,0,1,690.21,574.85Z" transform="translate(-497.55 -396.46)"/><path class="cls-7" d="M693.58,583.17h-7a1.84,1.84,0,0,1-1.82-1.73l-.16-3.5a1.66,1.66,0,0,1,1.67-1.74h7a1.85,1.85,0,0,1,1.82,1.74l.15,3.5A1.64,1.64,0,0,1,693.58,583.17Z" transform="translate(-497.55 -396.46)"/><path class="cls-7" d="M697.54,591.6h-8a1.93,1.93,0,0,1-1.91-1.83l-.15-3.31a1.73,1.73,0,0,1,1.75-1.83h8a1.93,1.93,0,0,1,1.91,1.83l.15,3.31A1.73,1.73,0,0,1,697.54,591.6Z" transform="translate(-497.55 -396.46)"/><path class="cls-7" d="M700.58,599.92h-9a2,2,0,0,1-2-1.92l-.14-3.14a1.81,1.81,0,0,1,1.83-1.91h9a2,2,0,0,1,2,1.91l.14,3.14A1.82,1.82,0,0,1,700.58,599.92Z" transform="translate(-497.55 -396.46)"/><path class="cls-7" d="M704.93,573.73H698a2,2,0,0,1-2-1.59l-.31-3.68a1.6,1.6,0,0,1,1.77-1.59h6.9a2,2,0,0,1,2,1.59l.31,3.68A1.59,1.59,0,0,1,704.93,573.73Z" transform="translate(-497.55 -396.46)"/><path class="cls-7" d="M709.15,581.93h-8.29a2.1,2.1,0,0,1-2.19-1.7l-.3-3.44a1.72,1.72,0,0,1,1.91-1.71h8.29a2.1,2.1,0,0,1,2.19,1.71l.3,3.44A1.72,1.72,0,0,1,709.15,581.93Z" transform="translate(-497.55 -396.46)"/><path class="cls-7" d="M714.08,590.25h-9.44a2.22,2.22,0,0,1-2.31-1.8l-.28-3.26a1.81,1.81,0,0,1,2-1.79h9.43a2.21,2.21,0,0,1,2.31,1.79l.28,3.26A1.8,1.8,0,0,1,714.08,590.25Z" transform="translate(-497.55 -396.46)"/><path class="cls-7" d="M717.91,598.46H707.32a2.33,2.33,0,0,1-2.42-1.89l-.26-3.08a1.89,1.89,0,0,1,2.1-1.89h10.59a2.32,2.32,0,0,1,2.42,1.89l.26,3.08A1.9,1.9,0,0,1,717.91,598.46Z" transform="translate(-497.55 -396.46)"/><path class="cls-7" d="M718.41,572.49h-7A2.64,2.64,0,0,1,709,571l-1.2-3.44c-.28-.82.35-1.48,1.41-1.48h7a2.67,2.67,0,0,1,2.44,1.48l1.19,3.44C720.1,571.83,719.47,572.49,718.41,572.49Z" transform="translate(-497.55 -396.46)"/><path class="cls-7" d="M724.6,580.14h-8.37a2.87,2.87,0,0,1-2.62-1.6l-1.11-3.21c-.31-.89.37-1.6,1.51-1.6h8.36a2.85,2.85,0,0,1,2.62,1.6l1.12,3.21C726.41,579.42,725.74,580.14,724.6,580.14Z" transform="translate(-497.55 -396.46)"/><path class="cls-7" d="M731.48,587.78H722a3,3,0,0,1-2.76-1.68l-1.05-3.05c-.33-.92.39-1.68,1.59-1.68h9.51a3,3,0,0,1,2.76,1.68l1.06,3.05C733.39,587,732.68,587.78,731.48,587.78Z" transform="translate(-497.55 -396.46)"/><path class="cls-7" d="M737.27,595.42H726.59a3.16,3.16,0,0,1-2.89-1.76l-1-2.88c-.34-1,.41-1.76,1.67-1.76H735a3.13,3.13,0,0,1,2.89,1.76l1,2.88C739.27,594.63,738.53,595.42,737.27,595.42Z" transform="translate(-497.55 -396.46)"/><path class="cls-7" d="M732.06,570.5l-6.91.27a3.18,3.18,0,0,1-2.71-1.42l-1.85-3.48c-.44-.83,0-1.53,1.1-1.57l6.91-.27a3.12,3.12,0,0,1,2.7,1.42l1.86,3.48C733.6,569.75,733.11,570.46,732.06,570.5Z" transform="translate(-497.55 -396.46)"/><path class="cls-7" d="M739.73,578.14l-8.3.33a3.41,3.41,0,0,1-2.91-1.53l-1.73-3.25c-.48-.9.06-1.65,1.19-1.7l8.3-.32a3.39,3.39,0,0,1,2.91,1.53l1.73,3.25C741.4,577.34,740.86,578.1,739.73,578.14Z" transform="translate(-497.55 -396.46)"/><path class="cls-7" d="M748.1,585.76l-9.44.37a3.61,3.61,0,0,1-3.07-1.62L734,581.43c-.5-.93.06-1.73,1.25-1.78l9.44-.37a3.56,3.56,0,0,1,3.07,1.62l1.64,3.07C749.85,584.91,749.29,585.71,748.1,585.76Z" transform="translate(-497.55 -396.46)"/><path class="cls-7" d="M755.38,593.41l-10.59.42a3.74,3.74,0,0,1-3.21-1.69L740,589.22c-.52-1,.06-1.82,1.31-1.87l10.6-.41a3.75,3.75,0,0,1,3.21,1.69l1.55,2.92C757.22,592.53,756.63,593.37,755.38,593.41Z" transform="translate(-497.55 -396.46)"/><path class="cls-7" d="M748.19,568.13l-6.89.62a3.18,3.18,0,0,1-2.77-1.2l-2-3.19c-.48-.76,0-1.45,1-1.55l6.88-.63a3.21,3.21,0,0,1,2.77,1.21l2,3.19C749.7,567.34,749.23,568,748.19,568.13Z" transform="translate(-497.55 -396.46)"/><path class="cls-7" d="M756.21,575l-8.27.75a3.46,3.46,0,0,1-3-1.29l-1.88-3c-.52-.81,0-1.56,1.1-1.66l8.27-.76a3.43,3.43,0,0,1,3,1.3l1.89,3C757.83,574.1,757.34,574.84,756.21,575Z" transform="translate(-497.55 -396.46)"/><path class="cls-7" d="M764.92,581.71l-9.41.85a3.59,3.59,0,0,1-3.13-1.36l-1.79-2.83c-.54-.86,0-1.64,1.17-1.75l9.41-.86a3.62,3.62,0,0,1,3.13,1.37l1.79,2.82C766.63,580.81,766.11,581.6,764.92,581.71Z" transform="translate(-497.55 -396.46)"/><path class="cls-7" d="M772.55,588.56l-10.56,1a3.78,3.78,0,0,1-3.29-1.42L757,585.42c-.57-.9,0-1.73,1.23-1.84l10.56-1a3.79,3.79,0,0,1,3.28,1.43l1.69,2.67C774.34,587.63,773.8,588.45,772.55,588.56Z" transform="translate(-497.55 -396.46)"/><path class="cls-7" d="M649.35,575.08h5.87a1.63,1.63,0,0,0,1.62-1.62v-3.73a1.63,1.63,0,0,0-1.62-1.62h-5.87a1.62,1.62,0,0,0-1.61,1.62v3.73A1.62,1.62,0,0,0,649.35,575.08Z" transform="translate(-497.55 -396.46)"/><path class="cls-7" d="M637.26,575.08h5.89a1.9,1.9,0,0,0,1.81-1.69l.43-3.93a1.46,1.46,0,0,0-1.44-1.69h-5.89a1.9,1.9,0,0,0-1.81,1.69l-.43,3.93A1.47,1.47,0,0,0,637.26,575.08Z" transform="translate(-497.55 -396.46)"/><path class="cls-7" d="M635.19,583.73h6.33a2,2,0,0,0,1.94-1.69l.46-3.92a1.49,1.49,0,0,0-1.54-1.69h-6.33a2,2,0,0,0-1.95,1.69l-.46,3.92A1.5,1.5,0,0,0,635.19,583.73Z" transform="translate(-497.55 -396.46)"/><path class="cls-7" d="M633.39,592.05H640a2.06,2.06,0,0,0,2-1.69l.48-3.92a1.53,1.53,0,0,0-1.62-1.7h-6.64a2,2,0,0,0-2,1.7l-.49,3.92A1.54,1.54,0,0,0,633.39,592.05Z" transform="translate(-497.55 -396.46)"/><path class="cls-7" d="M631.77,601h7.13a2.16,2.16,0,0,0,2.19-1.69l.52-3.92a1.57,1.57,0,0,0-1.74-1.69h-7.13a2.15,2.15,0,0,0-2.19,1.69l-.52,3.92A1.58,1.58,0,0,0,631.77,601Z" transform="translate(-497.55 -396.46)"/><path class="cls-7" d="M648.35,583.73h7.09a1.74,1.74,0,0,0,1.74-1.74V578.5a1.74,1.74,0,0,0-1.74-1.74h-7.09a1.74,1.74,0,0,0-1.74,1.74V582A1.74,1.74,0,0,0,648.35,583.73Z" transform="translate(-497.55 -396.46)"/><path class="cls-7" d="M647.21,592.39h8a1.83,1.83,0,0,0,1.83-1.84v-3.3a1.83,1.83,0,0,0-1.83-1.83h-8a1.83,1.83,0,0,0-1.83,1.83v3.31A1.82,1.82,0,0,0,647.21,592.39Z" transform="translate(-497.55 -396.46)"/><path class="cls-7" d="M646.17,601h9a1.92,1.92,0,0,0,1.92-1.92V596a1.92,1.92,0,0,0-1.92-1.92h-9a1.92,1.92,0,0,0-1.92,1.92v3.13A1.92,1.92,0,0,0,646.17,601Z" transform="translate(-497.55 -396.46)"/><path class="cls-7" d="M626.17,574.85H632a1.71,1.71,0,0,0,1.69-1.61l.17-3.74a1.53,1.53,0,0,0-1.55-1.61h-5.86a1.71,1.71,0,0,0-1.69,1.61l-.17,3.74A1.53,1.53,0,0,0,626.17,574.85Z" transform="translate(-497.55 -396.46)"/><path class="cls-7" d="M622.8,583.17h7a1.84,1.84,0,0,0,1.82-1.73l.16-3.5a1.66,1.66,0,0,0-1.67-1.74h-7a1.85,1.85,0,0,0-1.82,1.74l-.15,3.5A1.64,1.64,0,0,0,622.8,583.17Z" transform="translate(-497.55 -396.46)"/><path class="cls-7" d="M618.84,591.6h8a1.93,1.93,0,0,0,1.91-1.83l.15-3.31a1.73,1.73,0,0,0-1.75-1.83h-8a1.93,1.93,0,0,0-1.91,1.83l-.15,3.31A1.73,1.73,0,0,0,618.84,591.6Z" transform="translate(-497.55 -396.46)"/><path class="cls-7" d="M615.8,599.92h9a2,2,0,0,0,2-1.92l.14-3.14a1.81,1.81,0,0,0-1.83-1.91h-9a2,2,0,0,0-2,1.91L614,598A1.82,1.82,0,0,0,615.8,599.92Z" transform="translate(-497.55 -396.46)"/><path class="cls-7" d="M611.46,573.73h6.9a2,2,0,0,0,2-1.59l.31-3.68a1.6,1.6,0,0,0-1.77-1.59H612a2,2,0,0,0-2,1.59l-.31,3.68A1.59,1.59,0,0,0,611.46,573.73Z" transform="translate(-497.55 -396.46)"/><path class="cls-7" d="M607.23,581.93h8.29a2.1,2.1,0,0,0,2.19-1.7l.3-3.44a1.72,1.72,0,0,0-1.91-1.71h-8.29a2.1,2.1,0,0,0-2.19,1.71l-.3,3.44A1.72,1.72,0,0,0,607.23,581.93Z" transform="translate(-497.55 -396.46)"/><path class="cls-7" d="M602.3,590.25h9.44a2.22,2.22,0,0,0,2.31-1.8l.28-3.26a1.81,1.81,0,0,0-2-1.79h-9.43a2.21,2.21,0,0,0-2.31,1.79l-.28,3.26A1.8,1.8,0,0,0,602.3,590.25Z" transform="translate(-497.55 -396.46)"/><path class="cls-7" d="M598.47,598.46h10.59a2.33,2.33,0,0,0,2.42-1.89l.26-3.08a1.89,1.89,0,0,0-2.1-1.89H599.05a2.32,2.32,0,0,0-2.42,1.89l-.26,3.08A1.9,1.9,0,0,0,598.47,598.46Z" transform="translate(-497.55 -396.46)"/><path class="cls-7" d="M598,572.49h7a2.64,2.64,0,0,0,2.44-1.48l1.2-3.44c.28-.82-.35-1.48-1.41-1.48h-7a2.67,2.67,0,0,0-2.44,1.48L596.57,571C596.28,571.83,596.91,572.49,598,572.49Z" transform="translate(-497.55 -396.46)"/><path class="cls-7" d="M591.78,580.14h8.37a2.87,2.87,0,0,0,2.62-1.6l1.11-3.21c.31-.89-.37-1.6-1.51-1.6H594a2.85,2.85,0,0,0-2.62,1.6l-1.12,3.21C590,579.42,590.64,580.14,591.78,580.14Z" transform="translate(-497.55 -396.46)"/><path class="cls-7" d="M584.9,587.78h9.52a3,3,0,0,0,2.76-1.68l1.06-3.05c.32-.92-.4-1.68-1.6-1.68h-9.51a3,3,0,0,0-2.76,1.68l-1.06,3.05C583,587,583.7,587.78,584.9,587.78Z" transform="translate(-497.55 -396.46)"/><path class="cls-7" d="M579.11,595.42h10.68a3.16,3.16,0,0,0,2.89-1.76l1-2.88c.34-1-.41-1.76-1.67-1.76H581.34a3.13,3.13,0,0,0-2.89,1.76l-1,2.88C577.11,594.63,577.85,595.42,579.11,595.42Z" transform="translate(-497.55 -396.46)"/><path class="cls-7" d="M584.33,570.5l6.9.27a3.18,3.18,0,0,0,2.71-1.42l1.85-3.48c.45-.83,0-1.53-1.1-1.57l-6.91-.27a3.12,3.12,0,0,0-2.7,1.42l-1.86,3.48C582.78,569.75,583.27,570.46,584.33,570.5Z" transform="translate(-497.55 -396.46)"/><path class="cls-7" d="M576.65,578.14l8.3.33a3.41,3.41,0,0,0,2.91-1.53l1.73-3.25c.48-.9-.06-1.65-1.19-1.7l-8.3-.32a3.39,3.39,0,0,0-2.91,1.53l-1.73,3.25C575,577.34,575.52,578.1,576.65,578.14Z" transform="translate(-497.55 -396.46)"/><path class="cls-7" d="M568.28,585.76l9.44.37a3.61,3.61,0,0,0,3.07-1.62l1.64-3.08c.5-.93-.06-1.73-1.25-1.78l-9.44-.37a3.56,3.56,0,0,0-3.07,1.62L567,584C566.53,584.91,567.09,585.71,568.28,585.76Z" transform="translate(-497.55 -396.46)"/><path class="cls-7" d="M561,593.41l10.59.42a3.77,3.77,0,0,0,3.22-1.69l1.55-2.92c.53-1-.06-1.82-1.31-1.87l-10.6-.41a3.76,3.76,0,0,0-3.21,1.69l-1.55,2.92C559.16,592.53,559.75,593.37,561,593.41Z" transform="translate(-497.55 -396.46)"/><path class="cls-7" d="M568.2,568.13l6.88.62a3.18,3.18,0,0,0,2.77-1.2l2-3.19c.48-.76,0-1.45-1-1.55l-6.88-.63a3.21,3.21,0,0,0-2.77,1.21l-2,3.19C566.69,567.34,567.15,568,568.2,568.13Z" transform="translate(-497.55 -396.46)"/><path class="cls-7" d="M560.17,575l8.27.75a3.46,3.46,0,0,0,3-1.29l1.89-3c.51-.81,0-1.56-1.11-1.66l-8.27-.76a3.44,3.44,0,0,0-3,1.3l-1.88,3C558.55,574.1,559,574.84,560.17,575Z" transform="translate(-497.55 -396.46)"/><path class="cls-7" d="M551.46,581.71l9.41.85A3.59,3.59,0,0,0,564,581.2l1.79-2.83c.54-.86,0-1.64-1.17-1.75l-9.41-.86a3.63,3.63,0,0,0-3.13,1.37L550.29,580C549.75,580.81,550.27,581.6,551.46,581.71Z" transform="translate(-497.55 -396.46)"/><path class="cls-7" d="M543.83,588.56l10.56,1a3.78,3.78,0,0,0,3.29-1.42l1.69-2.68c.57-.9,0-1.73-1.23-1.84l-10.55-1a3.8,3.8,0,0,0-3.29,1.43l-1.69,2.67C542,587.63,542.59,588.45,543.83,588.56Z" transform="translate(-497.55 -396.46)"/><path class="cls-13" d="M665.45,575.64h-5.87A1.62,1.62,0,0,1,658,574v-3.73a1.63,1.63,0,0,1,1.62-1.62h5.87a1.63,1.63,0,0,1,1.62,1.62V574A1.62,1.62,0,0,1,665.45,575.64Z" transform="translate(-497.55 -396.46)"/><path class="cls-13" d="M677.54,575.64h-5.89a1.9,1.9,0,0,1-1.8-1.69l-.43-3.92a1.45,1.45,0,0,1,1.44-1.69h5.89a1.89,1.89,0,0,1,1.8,1.69L679,574A1.45,1.45,0,0,1,677.54,575.64Z" transform="translate(-497.55 -396.46)"/><path class="cls-13" d="M679.62,584.29h-6.33a2,2,0,0,1-1.95-1.69l-.46-3.92a1.5,1.5,0,0,1,1.55-1.69h6.33a2,2,0,0,1,1.94,1.69l.46,3.92A1.49,1.49,0,0,1,679.62,584.29Z" transform="translate(-497.55 -396.46)"/><path class="cls-13" d="M681.42,592.61h-6.64a2,2,0,0,1-2-1.69l-.49-3.92a1.53,1.53,0,0,1,1.63-1.69h6.64a2.05,2.05,0,0,1,2,1.69l.48,3.92A1.52,1.52,0,0,1,681.42,592.61Z" transform="translate(-497.55 -396.46)"/><path class="cls-13" d="M683,601.72H675.9a2.18,2.18,0,0,1-2.19-1.7l-.52-3.92a1.59,1.59,0,0,1,1.75-1.69h7.13a2.18,2.18,0,0,1,2.19,1.69l.52,3.92A1.59,1.59,0,0,1,683,601.72Z" transform="translate(-497.55 -396.46)"/><path class="cls-13" d="M666.44,584.29h-7.07a1.73,1.73,0,0,1-1.74-1.73v-3.49a1.73,1.73,0,0,1,1.74-1.74h7.08a1.74,1.74,0,0,1,1.74,1.74v3.49A1.73,1.73,0,0,1,666.44,584.29Z" transform="translate(-497.55 -396.46)"/><path class="cls-13" d="M667.59,593h-8a1.83,1.83,0,0,1-1.83-1.83v-3.31a1.83,1.83,0,0,1,1.83-1.83h8a1.83,1.83,0,0,1,1.84,1.83v3.31A1.83,1.83,0,0,1,667.59,593Z" transform="translate(-497.55 -396.46)"/><path class="cls-13" d="M668.63,601.72h-9a1.93,1.93,0,0,1-1.92-1.93v-3.12a1.92,1.92,0,0,1,1.92-1.92h9a1.92,1.92,0,0,1,1.92,1.92v3.12A1.93,1.93,0,0,1,668.63,601.72Z" transform="translate(-497.55 -396.46)"/><path class="cls-13" d="M688.64,575.42h-5.86a1.71,1.71,0,0,1-1.69-1.62l-.17-3.74a1.53,1.53,0,0,1,1.54-1.61h5.87a1.71,1.71,0,0,1,1.69,1.61l.16,3.74A1.54,1.54,0,0,1,688.64,575.42Z" transform="translate(-497.55 -396.46)"/><path class="cls-13" d="M692,583.85h-7a1.83,1.83,0,0,1-1.81-1.74l-.16-3.5a1.64,1.64,0,0,1,1.66-1.73h7.05a1.82,1.82,0,0,1,1.81,1.73l.16,3.5A1.65,1.65,0,0,1,692,583.85Z" transform="translate(-497.55 -396.46)"/><path class="cls-13" d="M696,592.16h-8a1.94,1.94,0,0,1-1.92-1.83l-.15-3.31a1.74,1.74,0,0,1,1.75-1.83h8a1.94,1.94,0,0,1,1.92,1.83l.15,3.31A1.74,1.74,0,0,1,696,592.16Z" transform="translate(-497.55 -396.46)"/><path class="cls-13" d="M699,600.59h-9a2,2,0,0,1-2-1.91l-.14-3.14a1.83,1.83,0,0,1,1.84-1.92h9a2,2,0,0,1,2,1.92l.15,3.14A1.83,1.83,0,0,1,699,600.59Z" transform="translate(-497.55 -396.46)"/><path class="cls-13" d="M703.35,574.29h-6.9a2,2,0,0,1-2-1.58l-.32-3.69a1.6,1.6,0,0,1,1.77-1.58h6.91a2,2,0,0,1,2,1.58l.31,3.69A1.6,1.6,0,0,1,703.35,574.29Z" transform="translate(-497.55 -396.46)"/><path class="cls-13" d="M707.58,582.61h-8.29a2.11,2.11,0,0,1-2.2-1.71l-.29-3.44a1.72,1.72,0,0,1,1.9-1.71H707a2.11,2.11,0,0,1,2.19,1.71l.29,3.44A1.72,1.72,0,0,1,707.58,582.61Z" transform="translate(-497.55 -396.46)"/><path class="cls-13" d="M712.5,590.81h-9.43a2.21,2.21,0,0,1-2.31-1.79l-.28-3.26a1.81,1.81,0,0,1,2-1.8h9.44a2.21,2.21,0,0,1,2.31,1.8l.28,3.26A1.81,1.81,0,0,1,712.5,590.81Z" transform="translate(-497.55 -396.46)"/><path class="cls-13" d="M716.34,599.13H705.75a2.31,2.31,0,0,1-2.42-1.88l-.27-3.09a1.91,1.91,0,0,1,2.1-1.89h10.59a2.34,2.34,0,0,1,2.43,1.89l.26,3.09A1.89,1.89,0,0,1,716.34,599.13Z" transform="translate(-497.55 -396.46)"/><path class="cls-13" d="M716.83,573.17h-7a2.66,2.66,0,0,1-2.43-1.48l-1.2-3.45c-.28-.81.34-1.48,1.4-1.48h7a2.66,2.66,0,0,1,2.43,1.48l1.2,3.45C718.52,572.51,717.89,573.17,716.83,573.17Z" transform="translate(-497.55 -396.46)"/><path class="cls-13" d="M723,580.81h-8.36a2.85,2.85,0,0,1-2.62-1.59L710.92,576c-.3-.88.37-1.6,1.51-1.6h8.37a2.87,2.87,0,0,1,2.62,1.6l1.11,3.22C724.84,580.1,724.16,580.81,723,580.81Z" transform="translate(-497.55 -396.46)"/><path class="cls-13" d="M729.9,588.45h-9.51a3,3,0,0,1-2.76-1.68l-1.06-3c-.32-.93.39-1.68,1.59-1.68h9.52a3,3,0,0,1,2.75,1.68l1.06,3C731.82,587.7,731.1,588.45,729.9,588.45Z" transform="translate(-497.55 -396.46)"/><path class="cls-13" d="M735.69,596.1H725a3.14,3.14,0,0,1-2.89-1.77l-1-2.88c-.34-1,.4-1.76,1.66-1.76h10.68a3.16,3.16,0,0,1,2.89,1.76l1,2.88C737.7,595.31,737,596.1,735.69,596.1Z" transform="translate(-497.55 -396.46)"/><path class="cls-13" d="M730.48,571.11l-6.91.27a3.16,3.16,0,0,1-2.7-1.42L719,566.48c-.44-.83.06-1.53,1.11-1.57l6.9-.27a3.12,3.12,0,0,1,2.71,1.42l1.86,3.48C732,570.37,731.53,571.07,730.48,571.11Z" transform="translate(-497.55 -396.46)"/><path class="cls-13" d="M738.16,578.75l-8.3.33a3.4,3.4,0,0,1-2.91-1.53l-1.74-3.25c-.47-.89.06-1.65,1.19-1.7l8.3-.32a3.37,3.37,0,0,1,2.91,1.53l1.74,3.25C739.82,578,739.29,578.71,738.16,578.75Z" transform="translate(-497.55 -396.46)"/><path class="cls-13" d="M746.53,586.37l-9.45.37a3.56,3.56,0,0,1-3.06-1.62l-1.64-3.07c-.5-.94.06-1.74,1.25-1.79l9.44-.37a3.61,3.61,0,0,1,3.07,1.62l1.64,3.08C748.28,585.52,747.72,586.32,746.53,586.37Z" transform="translate(-497.55 -396.46)"/><path class="cls-13" d="M753.81,594l-10.6.41a3.74,3.74,0,0,1-3.21-1.69l-1.55-2.91c-.53-1,.06-1.82,1.31-1.87l10.59-.42a3.74,3.74,0,0,1,3.21,1.69l1.56,2.92C755.64,593.14,755.06,594,753.81,594Z" transform="translate(-497.55 -396.46)"/><path class="cls-13" d="M746.61,568.74l-6.88.62a3.18,3.18,0,0,1-2.77-1.2l-2-3.19c-.48-.76,0-1.45,1-1.55l6.89-.63a3.18,3.18,0,0,1,2.76,1.21l2,3.19C748.12,568,747.66,568.64,746.61,568.74Z" transform="translate(-497.55 -396.46)"/><path class="cls-13" d="M754.63,575.56l-8.27.75a3.4,3.4,0,0,1-3-1.29l-1.89-3c-.51-.81,0-1.56,1.11-1.66l8.27-.75a3.41,3.41,0,0,1,3,1.29l1.88,3C756.26,574.71,755.76,575.46,754.63,575.56Z" transform="translate(-497.55 -396.46)"/><path class="cls-13" d="M763.35,582.32l-9.41.85a3.62,3.62,0,0,1-3.14-1.36L749,579c-.55-.86,0-1.64,1.16-1.75l9.41-.86a3.64,3.64,0,0,1,3.14,1.37l1.78,2.82C765.06,581.42,764.54,582.21,763.35,582.32Z" transform="translate(-497.55 -396.46)"/><path class="cls-13" d="M771,589.17l-10.56,1a3.77,3.77,0,0,1-3.29-1.42L755.44,586c-.57-.9,0-1.73,1.22-1.84l10.56-1a3.8,3.8,0,0,1,3.29,1.43l1.69,2.67C772.77,588.24,772.22,589.06,771,589.17Z" transform="translate(-497.55 -396.46)"/><path class="cls-13" d="M647.78,575.64h5.87a1.62,1.62,0,0,0,1.62-1.62v-3.73a1.63,1.63,0,0,0-1.62-1.62h-5.87a1.63,1.63,0,0,0-1.62,1.62V574A1.62,1.62,0,0,0,647.78,575.64Z" transform="translate(-497.55 -396.46)"/><path class="cls-13" d="M635.69,575.64h5.89a1.91,1.91,0,0,0,1.81-1.69l.42-3.92a1.45,1.45,0,0,0-1.43-1.69h-5.89a1.89,1.89,0,0,0-1.81,1.69l-.43,3.92A1.46,1.46,0,0,0,635.69,575.64Z" transform="translate(-497.55 -396.46)"/><path class="cls-13" d="M633.62,584.29H640a2,2,0,0,0,1.94-1.69l.46-3.92A1.5,1.5,0,0,0,640.8,577h-6.33a2,2,0,0,0-1.94,1.69l-.46,3.92A1.49,1.49,0,0,0,633.62,584.29Z" transform="translate(-497.55 -396.46)"/><path class="cls-13" d="M631.81,592.61h6.64a2,2,0,0,0,2-1.69L641,587a1.53,1.53,0,0,0-1.63-1.69h-6.64a2.05,2.05,0,0,0-2,1.69l-.48,3.92A1.52,1.52,0,0,0,631.81,592.61Z" transform="translate(-497.55 -396.46)"/><path class="cls-13" d="M630.2,601.72h7.13a2.16,2.16,0,0,0,2.19-1.7l.52-3.92a1.58,1.58,0,0,0-1.74-1.69h-7.14A2.18,2.18,0,0,0,629,596.1l-.52,3.92A1.59,1.59,0,0,0,630.2,601.72Z" transform="translate(-497.55 -396.46)"/><path class="cls-13" d="M646.78,584.29h7.08a1.73,1.73,0,0,0,1.74-1.73v-3.49a1.74,1.74,0,0,0-1.74-1.74h-7.08a1.74,1.74,0,0,0-1.74,1.74v3.49A1.73,1.73,0,0,0,646.78,584.29Z" transform="translate(-497.55 -396.46)"/><path class="cls-13" d="M645.64,593h8a1.83,1.83,0,0,0,1.83-1.83v-3.31a1.83,1.83,0,0,0-1.83-1.83h-8a1.83,1.83,0,0,0-1.84,1.83v3.31A1.83,1.83,0,0,0,645.64,593Z" transform="translate(-497.55 -396.46)"/><path class="cls-13" d="M644.6,601.72h9a1.93,1.93,0,0,0,1.92-1.93v-3.12a1.92,1.92,0,0,0-1.92-1.92h-9a1.92,1.92,0,0,0-1.92,1.92v3.13A1.92,1.92,0,0,0,644.6,601.72Z" transform="translate(-497.55 -396.46)"/><path class="cls-13" d="M624.59,575.42h5.87a1.72,1.72,0,0,0,1.69-1.62l.16-3.74a1.52,1.52,0,0,0-1.54-1.61h-5.86a1.7,1.7,0,0,0-1.69,1.61l-.17,3.74A1.54,1.54,0,0,0,624.59,575.42Z" transform="translate(-497.55 -396.46)"/><path class="cls-13" d="M621.22,583.85h7a1.83,1.83,0,0,0,1.81-1.74l.16-3.5a1.64,1.64,0,0,0-1.66-1.73h-7a1.83,1.83,0,0,0-1.82,1.73l-.16,3.5A1.65,1.65,0,0,0,621.22,583.85Z" transform="translate(-497.55 -396.46)"/><path class="cls-13" d="M617.26,592.16h8a1.93,1.93,0,0,0,1.91-1.83l.15-3.31a1.74,1.74,0,0,0-1.75-1.83h-8a1.94,1.94,0,0,0-1.92,1.83l-.14,3.31A1.73,1.73,0,0,0,617.26,592.16Z" transform="translate(-497.55 -396.46)"/><path class="cls-13" d="M614.23,600.59h9a2,2,0,0,0,2-1.91l.14-3.14a1.82,1.82,0,0,0-1.83-1.92h-9a2,2,0,0,0-2,1.92l-.14,3.14A1.81,1.81,0,0,0,614.23,600.59Z" transform="translate(-497.55 -396.46)"/><path class="cls-13" d="M609.88,574.29h6.9a2,2,0,0,0,2-1.58l.32-3.69a1.6,1.6,0,0,0-1.77-1.58h-6.9a2,2,0,0,0-2,1.58l-.32,3.69A1.6,1.6,0,0,0,609.88,574.29Z" transform="translate(-497.55 -396.46)"/><path class="cls-13" d="M605.65,582.61H614a2.11,2.11,0,0,0,2.19-1.71l.29-3.44a1.72,1.72,0,0,0-1.9-1.71h-8.29a2.11,2.11,0,0,0-2.2,1.71l-.29,3.44A1.72,1.72,0,0,0,605.65,582.61Z" transform="translate(-497.55 -396.46)"/><path class="cls-13" d="M600.73,590.81h9.43a2.21,2.21,0,0,0,2.31-1.79l.28-3.26a1.8,1.8,0,0,0-2-1.8h-9.44a2.22,2.22,0,0,0-2.31,1.8l-.28,3.26A1.81,1.81,0,0,0,600.73,590.81Z" transform="translate(-497.55 -396.46)"/><path class="cls-13" d="M596.89,599.13h10.59a2.33,2.33,0,0,0,2.43-1.88l.26-3.09a1.9,1.9,0,0,0-2.1-1.89H597.48a2.32,2.32,0,0,0-2.42,1.89l-.27,3.09A1.9,1.9,0,0,0,596.89,599.13Z" transform="translate(-497.55 -396.46)"/><path class="cls-13" d="M596.4,573.17h7a2.68,2.68,0,0,0,2.44-1.48l1.19-3.45c.29-.81-.34-1.48-1.4-1.48h-7a2.66,2.66,0,0,0-2.43,1.48l-1.2,3.45C594.71,572.51,595.34,573.17,596.4,573.17Z" transform="translate(-497.55 -396.46)"/><path class="cls-13" d="M590.21,580.81h8.36a2.84,2.84,0,0,0,2.62-1.59l1.12-3.22c.31-.88-.37-1.6-1.51-1.6h-8.36a2.85,2.85,0,0,0-2.62,1.6l-1.12,3.22C588.39,580.1,589.07,580.81,590.21,580.81Z" transform="translate(-497.55 -396.46)"/><path class="cls-13" d="M583.33,588.45h9.51a3,3,0,0,0,2.76-1.68l1.06-3c.32-.93-.39-1.68-1.59-1.68h-9.51a3,3,0,0,0-2.76,1.68l-1.06,3C581.42,587.7,582.13,588.45,583.33,588.45Z" transform="translate(-497.55 -396.46)"/><path class="cls-13" d="M577.54,596.1h10.67a3.14,3.14,0,0,0,2.89-1.77l1-2.88c.33-1-.41-1.76-1.67-1.76H579.76a3.17,3.17,0,0,0-2.89,1.76l-1,2.88C575.54,595.31,576.28,596.1,577.54,596.1Z" transform="translate(-497.55 -396.46)"/><path class="cls-13" d="M582.75,571.11l6.91.27a3.16,3.16,0,0,0,2.7-1.42l1.86-3.48c.44-.83-.05-1.53-1.11-1.57l-6.9-.27a3.12,3.12,0,0,0-2.71,1.42l-1.85,3.48C581.2,570.37,581.7,571.07,582.75,571.11Z" transform="translate(-497.55 -396.46)"/><path class="cls-13" d="M575.07,578.75l8.3.33a3.38,3.38,0,0,0,2.91-1.53L588,574.3c.47-.89-.06-1.65-1.19-1.7l-8.3-.32a3.37,3.37,0,0,0-2.91,1.53l-1.73,3.25C573.41,578,573.94,578.71,575.07,578.75Z" transform="translate(-497.55 -396.46)"/><path class="cls-13" d="M566.7,586.37l9.45.37a3.56,3.56,0,0,0,3.06-1.62l1.64-3.07c.5-.94-.05-1.74-1.25-1.79l-9.44-.37a3.58,3.58,0,0,0-3.06,1.62l-1.65,3.08C565,585.52,565.51,586.32,566.7,586.37Z" transform="translate(-497.55 -396.46)"/><path class="cls-13" d="M559.43,594l10.59.41a3.74,3.74,0,0,0,3.21-1.69l1.56-2.91c.52-1-.07-1.82-1.32-1.87l-10.59-.42a3.74,3.74,0,0,0-3.21,1.69l-1.56,2.92C557.59,593.14,558.18,594,559.43,594Z" transform="translate(-497.55 -396.46)"/><path class="cls-13" d="M566.62,568.74l6.88.62a3.18,3.18,0,0,0,2.77-1.2l2-3.19c.48-.76,0-1.45-1-1.55l-6.89-.63a3.19,3.19,0,0,0-2.76,1.21l-2,3.19C565.11,568,565.57,568.64,566.62,568.74Z" transform="translate(-497.55 -396.46)"/><path class="cls-13" d="M558.6,575.56l8.27.75a3.43,3.43,0,0,0,3-1.29l1.88-3c.52-.81,0-1.56-1.11-1.66l-8.27-.75a3.38,3.38,0,0,0-3,1.29l-1.89,3C557,574.71,557.47,575.46,558.6,575.56Z" transform="translate(-497.55 -396.46)"/><path class="cls-13" d="M549.88,582.32l9.41.85a3.61,3.61,0,0,0,3.14-1.36l1.78-2.83c.55-.86,0-1.64-1.16-1.75l-9.41-.86a3.65,3.65,0,0,0-3.14,1.37l-1.78,2.82C548.17,581.42,548.7,582.21,549.88,582.32Z" transform="translate(-497.55 -396.46)"/><path class="cls-13" d="M542.26,589.17l10.55,1a3.77,3.77,0,0,0,3.29-1.42l1.69-2.68c.57-.9,0-1.73-1.22-1.84l-10.56-1a3.81,3.81,0,0,0-3.29,1.43L541,587.33C540.46,588.24,541,589.06,542.26,589.17Z" transform="translate(-497.55 -396.46)"/><polyline class="cls-14" points="150.58 142.56 138.52 152.54 150.58 161.28"/><polyline class="cls-14" points="170.55 142.56 181.71 152.54 169.65 161.28"/><line class="cls-14" x1="164.78" y1="141.65" x2="156.8" y2="163.4"/><path class="cls-9" d="M671.37,497.62c0,.28,0,.56,0,.83a27.88,27.88,0,0,1-1.23,8c-1.86,5.78-5.84,9.37-11.93,9.37-5.82,0-9.91-3.2-12-8.46a24.34,24.34,0,0,1-1.59-7.83c0-.57-.05-1.16-.05-1.75,0-2-2-5.22-1.61-7,2-8,8-13.83,15.25-13.83s13.29,5.83,15.26,13.83C673.89,492.57,671.37,495.67,671.37,497.62Z" transform="translate(-497.55 -396.46)"/><path class="cls-15" d="M658.2,468.89c-9.1,0-16.47,5.83-16.47,15.39a17.94,17.94,0,0,0,1.21,6.51,19.76,19.76,0,0,1,6-10.24,19.1,19.1,0,0,0,8.35,1.55c4.34,0,8-.93,9.28-2.22a19.52,19.52,0,0,1,6.85,10.91,17.94,17.94,0,0,0,1.21-6.51C674.66,474.72,667.29,468.89,658.2,468.89Z" transform="translate(-497.55 -396.46)"/><path class="cls-10" d="M671.36,498.45a27.88,27.88,0,0,1-1.23,8,4.12,4.12,0,1,1,1.23-8Z" transform="translate(-497.55 -396.46)"/><path class="cls-10" d="M647.78,507.13a4.22,4.22,0,0,1-1.59.24,24.34,24.34,0,0,1-1.59-7.83l.4-.17a4.12,4.12,0,0,1,2.78,7.76Z" transform="translate(-497.55 -396.46)"/><path class="cls-15" d="M673.35,502.44c0,7.22-9,15.72-15.21,15.72s-15.21-8.29-15.21-15.5a8,8,0,0,1,1.62-4.87c.05,4.53,2.36,8.18,5.19,8.18a4,4,0,0,0,3-1.5,6.4,6.4,0,0,1,.88-1.25,6.12,6.12,0,0,1,4.54-2.05,6,6,0,0,1,3.85,1.39h0a6.54,6.54,0,0,1,1.86,2.53,3.71,3.71,0,0,0,2.32.88c2.87,0,5.2-3.74,5.2-8.35,0-.15,0-.31,0-.46A7.94,7.94,0,0,1,673.35,502.44Z" transform="translate(-497.55 -396.46)"/><path class="cls-16" d="M658.15,506.18l4.27-.11c0,1.47-1.93,2.66-4.27,2.66s-4.26-1.19-4.23-2.65v.1Z" transform="translate(-497.55 -396.46)"/><path class="cls-9" d="M637.69,494.1c0,1.95,2.58,3.18,4.54,3.18a3.53,3.53,0,0,0,3.54-3.52c0-1.94-3.81-4.76-5.77-4.76S637.69,492.16,637.69,494.1Z" transform="translate(-497.55 -396.46)"/><path class="cls-10" d="M643.58,495.86s-.17-4.8-2.71-4.13" transform="translate(-497.55 -396.46)"/><path class="cls-9" d="M679.15,494.1c0,1.95-2.57,3.18-4.53,3.18a3.54,3.54,0,0,1-3.55-3.52c0-1.94,3.82-4.76,5.78-4.76S679.15,492.16,679.15,494.1Z" transform="translate(-497.55 -396.46)"/><path class="cls-10" d="M673.26,495.86s.18-4.8,2.71-4.13" transform="translate(-497.55 -396.46)"/><polyline class="cls-10" points="161.55 97.74 162.67 103.56 160.6 103.89 159.17 103.89 160.6 97.74"/><path class="cls-7" d="M654.65,493.34A5.67,5.67,0,0,1,649,499l-.44,0h0a5.43,5.43,0,0,1-1.45-.31,5.59,5.59,0,0,1-1.93-1.16,5.46,5.46,0,0,1-1-1.26,5.58,5.58,0,0,1-.82-2.92,5.68,5.68,0,0,1,4.53-5.56,5.4,5.4,0,0,1,1.15-.12,5.12,5.12,0,0,1,.56,0,5.6,5.6,0,0,1,2.08.63,5.45,5.45,0,0,1,1.27.91A5.65,5.65,0,0,1,654.65,493.34Z" transform="translate(-497.55 -396.46)"/><path class="cls-17" d="M654.17,493.58s4.05-4.28,7.77.14" transform="translate(-497.55 -396.46)"/><path class="cls-9" d="M743.15,574.85a1.94,1.94,0,0,1-3.41-.87h0c-.65-3.5-1.93-8.22-4.08-7.65,0,0,.33,15.48-3.84,21.46a3.53,3.53,0,0,1-6.42-2V566.33s-4.51,4.73-5.25,21.3c0,0-4,7.55-8.73.74a83.32,83.32,0,0,1-.38-10,41,41,0,0,1,1-8.28,12.21,12.21,0,0,1,2.06-4.7h0c-.16.09-5.48,3.42-6.21,6.55,0,0-.27,7.38-2.79,10.18h0a3.57,3.57,0,0,1-1,.76l-.09,0a2.7,2.7,0,0,1-1.84.16,3.63,3.63,0,0,1-2.76-3.55V570.9a10.65,10.65,0,0,1,2.44-6.79l3.48-4.23s5.77-7.16,11.54-3.46c0,0,5.18-5.23,8.88-1.06,0,0,4.56-5,7-1.62,0,0,5.92-2.94,8.44,5.49C741.16,559.23,749.29,567.24,743.15,574.85Z" transform="translate(-497.55 -396.46)"/><path class="cls-10" d="M739.84,574c-.65-3.51-1.93-8.23-4.09-7.66l-.36-4.48C739,561.55,739.81,573.61,739.84,574Z" transform="translate(-497.55 -396.46)"/><path class="cls-10" d="M725.51,585.78V566.32s-4.52,4.74-5.26,21.34c-3-22.86,6.66-23.64,6.66-23.64C726.12,564.77,725.51,585.78,725.51,585.78Z" transform="translate(-497.55 -396.46)"/><path class="cls-10" d="M716.1,560.17a15.43,15.43,0,0,0-2,5.15c-.16.1-5.49,3.43-6.22,6.57,0,0-.27,7.39-2.8,10.2h0a4.29,4.29,0,0,1-1,.76l-.09,0a89.23,89.23,0,0,1,2-11.23C709.12,566.41,716,560.2,716.1,560.17Z" transform="translate(-497.55 -396.46)"/><path class="cls-9" d="M578.17,574.85a1.94,1.94,0,0,0,3.41-.87h0c.65-3.5,1.93-8.22,4.08-7.65,0,0-.33,15.48,3.84,21.46a3.53,3.53,0,0,0,6.42-2V566.33s4.51,4.73,5.25,21.3c0,0,4,7.55,8.73.74a81,81,0,0,0,.38-10,41,41,0,0,0-1-8.28,12.21,12.21,0,0,0-2.06-4.7h0c.16.09,5.48,3.42,6.21,6.55,0,0,.27,7.38,2.79,10.18h0a3.57,3.57,0,0,0,1,.76l.09,0a2.7,2.7,0,0,0,1.84.16,3.63,3.63,0,0,0,2.76-3.55V570.9a10.65,10.65,0,0,0-2.44-6.79L616,559.88s-5.77-7.16-11.54-3.46c0,0-5.18-5.23-8.88-1.06,0,0-4.56-5-6.95-1.62,0,0-5.92-2.94-8.43,5.49C580.17,559.23,572,567.24,578.17,574.85Z" transform="translate(-497.55 -396.46)"/><path class="cls-10" d="M581.54,574c.65-3.51,1.94-8.23,4.09-7.66l.36-4.48C582.43,561.55,581.57,573.61,581.54,574Z" transform="translate(-497.55 -396.46)"/><path class="cls-10" d="M595.92,585.78V566.32s4.52,4.74,5.26,21.34c3-22.86-6.66-23.64-6.66-23.64C595.31,564.77,595.92,585.78,595.92,585.78Z" transform="translate(-497.55 -396.46)"/><path class="cls-10" d="M605.29,560.17a15.81,15.81,0,0,1,2,5.15c.16.1,5.5,3.43,6.23,6.57,0,0,.26,7.39,2.79,10.2h0a4.29,4.29,0,0,0,1,.76l.08,0a87.36,87.36,0,0,0-2-11.23C612.27,566.41,605.44,560.2,605.29,560.17Z" transform="translate(-497.55 -396.46)"/><path class="cls-18" d="M649.52,487.72l-4.39,9.83a5.68,5.68,0,0,1-1-1.26l3.71-8.48a5.4,5.4,0,0,1,1.15-.12A5.12,5.12,0,0,1,649.52,487.72Z" transform="translate(-497.55 -396.46)"/><path class="cls-18" d="M652.89,489.23,648.54,499h0a5.43,5.43,0,0,1-1.45-.31l4.54-10.36A5.45,5.45,0,0,1,652.89,489.23Z" transform="translate(-497.55 -396.46)"/><path class="cls-7" d="M673,493.67a5.67,5.67,0,0,1-5.67,5.68l-.45,0h0a5.85,5.85,0,0,1-1.45-.31,5.66,5.66,0,0,1-1.93-1.16,6,6,0,0,1-1-1.26,5.68,5.68,0,0,1,3.71-8.48,5.57,5.57,0,0,1,1.16-.12,5.25,5.25,0,0,1,.56,0,5.71,5.71,0,0,1,2.08.62,6.05,6.05,0,0,1,1.27.92A5.66,5.66,0,0,1,673,493.67Z" transform="translate(-497.55 -396.46)"/><path class="cls-18" d="M667.83,488.06l-4.39,9.83a5.77,5.77,0,0,1-1-1.26l3.71-8.48a5.57,5.57,0,0,1,1.16-.12Z" transform="translate(-497.55 -396.46)"/><path class="cls-18" d="M671.2,489.57l-4.36,9.76h0a5.85,5.85,0,0,1-1.45-.31l4.54-10.37A6.05,6.05,0,0,1,671.2,489.57Z" transform="translate(-497.55 -396.46)"/><path class="cls-19" d="M673.13,518.16c0,5.79-6.09,10.48-13.59,10.48S646,524,646,518.16a8.27,8.27,0,0,1,.07-1.11,13.21,13.21,0,0,1,3.42,2.38s11.24,6.31,17.89-1.35a29.37,29.37,0,0,1,5.61-1.67A7.89,7.89,0,0,1,673.13,518.16Z" transform="translate(-497.55 -396.46)"/><g class="cls-20"><polygon class="cls-21" points="219.01 117.82 173.55 187.62 241.38 187.62 286.85 117.82 219.01 117.82"/><path class="cls-22" d="M716.58,514h68.15L738.9,584.35H670.75Zm67.38.67H716.55l-45,69.12h67.42Z" transform="translate(-497.55 -396.46)"/><polygon class="cls-22" points="219.01 117.88 215.01 124.06 282.82 124.06 286.82 117.88 219.01 117.88"/><path class="cls-22" d="M716.57,514h68.2l-4.42,6.74h-68.2Zm67.43.67H716.51l-3.59,5.51h67.5Z" transform="translate(-497.55 -396.46)"/><path class="cls-22" d="M778.8,517.43c-.56.86-.58,1.55-.06,1.55a3.24,3.24,0,0,0,2-1.55c.55-.85.58-1.54.06-1.54A3.23,3.23,0,0,0,778.8,517.43Z" transform="translate(-497.55 -396.46)"/><path class="cls-22" d="M774.93,517.43c-.56.86-.59,1.55-.06,1.55a3.2,3.2,0,0,0,2-1.55c.56-.85.59-1.54.06-1.54A3.21,3.21,0,0,0,774.93,517.43Z" transform="translate(-497.55 -396.46)"/><path class="cls-22" d="M771.05,517.43c-.55.86-.58,1.55,0,1.55a3.23,3.23,0,0,0,2-1.55c.56-.85.58-1.54.06-1.54A3.25,3.25,0,0,0,771.05,517.43Z" transform="translate(-497.55 -396.46)"/><polygon class="cls-22" points="267.98 137.43 270.05 137.43 270.86 136.2 268.78 136.2 267.98 137.43"/><polygon class="cls-22" points="234.01 137.43 266.55 137.43 267.33 136.2 234.79 136.2 234.01 137.43"/><polygon class="cls-22" points="228.88 137.43 232.82 137.43 233.62 136.2 229.68 136.2 228.88 137.43"/><polygon class="cls-22" points="212.29 153.5 216.24 153.5 217.04 152.27 213.1 152.27 212.29 153.5"/><polygon class="cls-22" points="215.21 137.43 228.12 137.43 228.9 136.2 216 136.2 215.21 137.43"/><polygon class="cls-22" points="263.87 140.69 265.94 140.69 266.75 139.46 264.67 139.46 263.87 140.69"/><polygon class="cls-22" points="247.33 140.69 262.49 140.69 263.27 139.46 248.11 139.46 247.33 140.69"/><polygon class="cls-22" points="217 153.5 222.91 153.5 223.72 152.27 217.8 152.27 217 153.5"/><polygon class="cls-22" points="243.69 150.25 258.18 150.25 258.96 149.01 244.48 149.01 243.69 150.25"/><polygon class="cls-22" points="250.07 143.84 260.54 143.84 261.35 142.6 250.88 142.6 250.07 143.84"/><polygon class="cls-22" points="213.78 147.1 223.94 147.1 224.72 145.86 214.56 145.86 213.78 147.1"/><polygon class="cls-22" points="223.46 143.84 249.11 143.84 249.89 142.6 224.24 142.6 223.46 143.84"/><polygon class="cls-22" points="224.15 153.5 256.09 153.5 256.87 152.27 224.93 152.27 224.15 153.5"/><polygon class="cls-22" points="209.67 140.69 226.45 140.69 227.23 139.46 210.45 139.46 209.67 140.69"/><polygon class="cls-22" points="227.28 140.69 246.38 140.69 247.16 139.46 228.06 139.46 227.28 140.69"/><polygon class="cls-22" points="209.78 143.84 216.49 143.84 217.3 142.6 210.58 142.6 209.78 143.84"/><polygon class="cls-22" points="261.78 143.84 263.85 143.84 264.66 142.6 262.58 142.6 261.78 143.84"/><polygon class="cls-22" points="261.7 147.1 263.77 147.1 264.58 145.86 262.5 145.86 261.7 147.1"/><polygon class="cls-22" points="248.37 147.1 260.27 147.1 261.06 145.86 249.15 145.86 248.37 147.1"/><polygon class="cls-22" points="240.13 156.76 252.03 156.76 252.81 155.53 240.91 155.53 240.13 156.76"/><polygon class="cls-22" points="202.97 159.91 218.31 159.91 219.09 158.68 203.76 158.68 202.97 159.91"/><polygon class="cls-22" points="217.79 156.76 239.16 156.76 239.94 155.53 218.57 155.53 217.79 156.76"/><polygon class="cls-22" points="219.35 159.91 239.17 159.91 239.96 158.68 220.13 158.68 219.35 159.91"/><polygon class="cls-22" points="246.43 159.91 249.98 159.91 250.79 158.68 247.24 158.68 246.43 159.91"/><polygon class="cls-22" points="220.58 150.25 242.88 150.25 243.66 149.01 221.36 149.01 220.58 150.25"/><polygon class="cls-22" points="205.27 150.25 219.75 150.25 220.53 149.01 206.06 149.01 205.27 150.25"/><polygon class="cls-22" points="224.88 147.1 247.16 147.1 247.94 145.86 225.66 145.86 224.88 147.1"/><polygon class="cls-22" points="259.61 150.25 261.68 150.25 262.49 149.01 260.41 149.01 259.61 150.25"/><polygon class="cls-22" points="257.51 153.5 259.59 153.5 260.4 152.27 258.32 152.27 257.51 153.5"/><polygon class="cls-22" points="253.41 156.76 255.48 156.76 256.29 155.53 254.22 155.53 253.41 156.76"/><polygon class="cls-22" points="251.32 159.91 253.39 159.91 254.2 158.68 252.12 158.68 251.32 159.91"/><polygon class="cls-22" points="251.58 162.61 253.66 162.61 254.46 161.37 252.38 161.37 251.58 162.61"/><polygon class="cls-22" points="226.53 162.61 250.15 162.61 250.93 161.37 227.31 161.37 226.53 162.61"/><polygon class="cls-22" points="247.47 165.87 249.55 165.87 250.35 164.63 248.28 164.63 247.47 165.87"/><polygon class="cls-22" points="230.93 165.87 246.1 165.87 246.88 164.63 231.71 164.63 230.93 165.87"/><polygon class="cls-22" points="227.3 175.42 241.78 175.42 242.57 174.18 228.08 174.18 227.3 175.42"/><polygon class="cls-22" points="233.68 169.01 244.15 169.01 244.95 167.78 234.48 167.78 233.68 169.01"/><polygon class="cls-22" points="207.06 169.01 232.72 169.01 233.5 167.78 207.84 167.78 207.06 169.01"/><polygon class="cls-22" points="207.75 178.68 239.69 178.68 240.48 177.44 208.53 177.44 207.75 178.68"/><polygon class="cls-22" points="193.27 165.87 210.05 165.87 210.84 164.63 194.05 164.63 193.27 165.87"/><polygon class="cls-22" points="210.89 165.87 229.98 165.87 230.76 164.63 211.67 164.63 210.89 165.87"/><polygon class="cls-22" points="193.38 169.01 200.1 169.01 200.9 167.78 194.18 167.78 193.38 169.01"/><polygon class="cls-22" points="245.38 169.01 247.46 169.01 248.26 167.78 246.19 167.78 245.38 169.01"/><polygon class="cls-22" points="245.3 172.27 247.38 172.27 248.18 171.04 246.11 171.04 245.3 172.27"/><polygon class="cls-22" points="231.97 172.27 243.88 172.27 244.66 171.04 232.75 171.04 231.97 172.27"/><polygon class="cls-22" points="204.18 175.42 226.48 175.42 227.26 174.18 204.97 174.18 204.18 175.42"/><polygon class="cls-22" points="208.48 172.27 230.76 172.27 231.54 171.04 209.26 171.04 208.48 172.27"/><polygon class="cls-22" points="243.21 175.42 245.29 175.42 246.09 174.18 244.02 174.18 243.21 175.42"/><path class="cls-22" d="M770.53,528.45l.05-1.08a.71.71,0,0,1,.26-.41c.14-.11.25-.11.25,0l-.06,1.29a0,0,0,0,1,0,0s0,0,0,0a.08.08,0,0,1,0,0h0l0,0v0l0,0,0,0,0,0,0,0,0,0,0,0a0,0,0,0,1,0,0l0,0h0l0,0-1.61,1.29a.34.34,0,0,1-.18.08c-.05,0-.07,0-.07-.08a.71.71,0,0,1,.26-.41Z" transform="translate(-497.55 -396.46)"/><path class="cls-22" d="M768.08,530a.08.08,0,0,1-.06,0c-.06,0-.09,0,0-.15l1-2.63a.7.7,0,0,1,.29-.32c.11,0,.16,0,.11.13l-1,2.63A.72.72,0,0,1,768.08,530Z" transform="translate(-497.55 -396.46)"/><path class="cls-22" d="M766.78,528.57h0l0,0h0l0,0,0,0v0l0,0h0l0,0h0l0,0h0l0,0,1.61-1.29c.14-.1.25-.1.25,0a.65.65,0,0,1-.26.41l-1.36,1.08,0,1.08a.71.71,0,0,1-.26.4.28.28,0,0,1-.18.08s-.07,0-.07-.08l.06-1.28v0h0A.08.08,0,0,0,766.78,528.57Z" transform="translate(-497.55 -396.46)"/></g><g class="cls-20"><polygon class="cls-21" points="115.77 122.99 162.97 199.75 92.55 199.75 45.35 122.99 115.77 122.99"/><path class="cls-23" d="M660.91,596.6h-70.8L542.5,519.17h70.8Zm-70.82-.79H660l-46.71-76H543.38Z" transform="translate(-497.55 -396.46)"/><polygon class="cls-23" points="115.7 123.05 119.85 129.79 49.61 129.79 45.46 123.05 115.7 123.05"/><path class="cls-23" d="M617.89,526.58H547.1l-4.59-7.41H613.3ZM547,525.91h70.21l-3.73-6.07H543.23Z" transform="translate(-497.55 -396.46)"/><path class="cls-23" d="M548.71,522.92c.58.94.6,1.7.06,1.7s-1.45-.76-2-1.7-.6-1.7-.06-1.7S548.13,522,548.71,522.92Z" transform="translate(-497.55 -396.46)"/><path class="cls-23" d="M552.73,522.92c.58.94.6,1.7.06,1.7s-1.45-.76-2-1.7-.6-1.7-.06-1.7S552.15,522,552.73,522.92Z" transform="translate(-497.55 -396.46)"/><path class="cls-23" d="M556.75,522.92c.58.94.6,1.7.06,1.7s-1.45-.76-2-1.7-.6-1.7-.06-1.7S556.17,522,556.75,522.92Z" transform="translate(-497.55 -396.46)"/><polygon class="cls-23" points="64.93 144.63 62.8 144.63 61.97 143.28 64.11 143.28 64.93 144.63"/><polygon class="cls-23" points="100.2 144.63 66.43 144.63 65.61 143.28 99.39 143.28 100.2 144.63"/><polygon class="cls-23" points="105.51 144.63 101.45 144.63 100.62 143.28 104.68 143.28 105.51 144.63"/><polygon class="cls-23" points="122.72 162.27 118.67 162.27 117.83 160.92 121.89 160.92 122.72 162.27"/><polygon class="cls-23" points="119.86 144.63 106.19 144.63 105.36 143.28 119.03 143.28 119.86 144.63"/><polygon class="cls-23" points="69.2 148.11 67.06 148.11 66.23 146.76 68.37 146.76 69.2 148.11"/><polygon class="cls-23" points="86.38 148.11 70.64 148.11 69.83 146.76 85.57 146.76 86.38 148.11"/><polygon class="cls-23" points="117.83 162.27 111.74 162.27 110.92 160.92 117 160.92 117.83 162.27"/><polygon class="cls-23" points="90.15 158.68 75.11 158.68 74.3 157.33 89.34 157.33 90.15 158.68"/><polygon class="cls-23" points="83.48 151.59 72.7 151.59 71.87 150.25 82.65 150.25 83.48 151.59"/><polygon class="cls-23" points="121.33 155.19 110.55 155.19 109.72 153.84 120.5 153.84 121.33 155.19"/><polygon class="cls-23" points="111.16 151.59 84.53 151.59 83.72 150.25 110.35 150.25 111.16 151.59"/><polygon class="cls-23" points="110.44 162.27 77.28 162.27 76.47 160.92 109.63 160.92 110.44 162.27"/><polygon class="cls-23" points="125.47 148.11 108.05 148.11 107.24 146.76 124.66 146.76 125.47 148.11"/><polygon class="cls-23" points="107.19 148.11 87.37 148.11 86.56 146.76 106.38 146.76 107.19 148.11"/><polygon class="cls-23" points="125.33 151.59 118.41 151.59 117.58 150.25 124.5 150.25 125.33 151.59"/><polygon class="cls-23" points="71.37 151.59 69.23 151.59 68.4 150.25 70.54 150.25 71.37 151.59"/><polygon class="cls-23" points="71.45 155.19 69.31 155.19 68.48 153.84 70.62 153.84 71.45 155.19"/><polygon class="cls-23" points="85.45 155.19 72.81 155.19 71.98 153.84 84.62 153.84 85.45 155.19"/><polygon class="cls-23" points="94 165.75 81.37 165.75 80.54 164.41 93.17 164.41 94 165.75"/><polygon class="cls-23" points="132.42 169.35 116.5 169.35 115.69 168 131.6 168 132.42 169.35"/><polygon class="cls-23" points="117.04 165.75 94.86 165.75 94.04 164.41 116.22 164.41 117.04 165.75"/><polygon class="cls-23" points="115.42 169.35 94.84 169.35 94.03 168 114.6 168 115.42 169.35"/><polygon class="cls-23" points="87.29 169.35 83.64 169.35 82.81 168 86.46 168 87.29 169.35"/><polygon class="cls-23" points="114.14 158.68 91 158.68 90.19 157.33 113.33 157.33 114.14 158.68"/><polygon class="cls-23" points="130.03 158.68 115.01 158.68 114.19 157.33 129.22 157.33 130.03 158.68"/><polygon class="cls-23" points="109.68 155.19 86.56 155.19 85.75 153.84 108.87 153.84 109.68 155.19"/><polygon class="cls-23" points="73.62 158.68 71.48 158.68 70.65 157.33 72.79 157.33 73.62 158.68"/><polygon class="cls-23" points="75.79 162.27 73.66 162.27 72.83 160.92 74.96 160.92 75.79 162.27"/><polygon class="cls-23" points="80.05 165.75 77.92 165.75 77.09 164.41 79.22 164.41 80.05 165.75"/><polygon class="cls-23" points="82.23 169.35 80.09 169.35 79.26 168 81.4 168 82.23 169.35"/><polygon class="cls-23" points="81.95 172.27 79.82 172.27 78.99 170.93 81.12 170.93 81.95 172.27"/><polygon class="cls-23" points="107.96 172.27 83.45 172.27 82.63 170.93 107.15 170.93 107.96 172.27"/><polygon class="cls-23" points="86.22 175.76 84.08 175.76 83.25 174.41 85.39 174.41 86.22 175.76"/><polygon class="cls-23" points="103.4 175.76 87.66 175.76 86.84 174.41 102.58 174.41 103.4 175.76"/><polygon class="cls-23" points="107.33 186.44 91.98 186.44 91.15 185.09 106.51 185.09 107.33 186.44"/><polygon class="cls-23" points="100.5 179.35 89.72 179.35 88.89 178.01 99.67 178.01 100.5 179.35"/><polygon class="cls-23" points="128.18 179.35 101.55 179.35 100.73 178.01 127.36 178.01 128.18 179.35"/><polygon class="cls-23" points="127.46 189.92 94.3 189.92 93.49 188.57 126.65 188.57 127.46 189.92"/><polygon class="cls-23" points="142.49 175.76 125.07 175.76 124.26 174.41 141.68 174.41 142.49 175.76"/><polygon class="cls-23" points="124.2 175.76 104.39 175.76 103.57 174.41 123.39 174.41 124.2 175.76"/><polygon class="cls-23" points="142.35 179.35 135.43 179.35 134.6 178.01 141.52 178.01 142.35 179.35"/><polygon class="cls-23" points="88.39 179.35 86.25 179.35 85.42 178.01 87.56 178.01 88.39 179.35"/><polygon class="cls-23" points="88.47 182.84 86.33 182.84 85.5 181.49 87.64 181.49 88.47 182.84"/><polygon class="cls-23" points="102.46 182.84 89.83 182.84 89 181.49 101.63 181.49 102.46 182.84"/><polygon class="cls-23" points="131.16 186.44 108.02 186.44 107.21 185.09 130.35 185.09 131.16 186.44"/><polygon class="cls-23" points="126.7 182.84 103.57 182.84 102.76 181.49 125.89 181.49 126.7 182.84"/><polygon class="cls-23" points="90.64 186.44 88.5 186.44 87.67 185.09 89.81 185.09 90.64 186.44"/><path class="cls-23" d="M558.7,536.22a.8.8,0,0,1,.28.45c0,.06,0,.09-.07.09a.32.32,0,0,1-.19-.09L557,535.25l0,0h0a.08.08,0,0,1,0,0l0,0,0,0,0,0a.08.08,0,0,1,0,0l0,0v0l0,0s0,0,0,0l0,0h0a.43.43,0,0,0,0,0s0,0,0,0a0,0,0,0,1,0,0l-.06-1.42c0-.12.12-.12.26,0a.76.76,0,0,1,.27.45l0,1.19Z" transform="translate(-497.55 -396.46)"/><path class="cls-23" d="M559.53,536.38l-1.07-2.89c-.06-.14,0-.21.12-.15a.7.7,0,0,1,.29.36l1.08,2.89c0,.11,0,.17,0,.17l-.07,0A.73.73,0,0,1,559.53,536.38Z" transform="translate(-497.55 -396.46)"/><path class="cls-23" d="M561.2,535.21h0v0l.06,1.42c0,.06,0,.09-.07.09a.35.35,0,0,1-.19-.09.73.73,0,0,1-.27-.45l-.05-1.18-1.41-1.19a.71.71,0,0,1-.27-.45c0-.11.11-.11.26,0l1.67,1.42,0,0h0l0,0h0l0,0v0l0,0,0,0v0l0,0h0l0,0h0A.08.08,0,0,0,561.2,535.21Z" transform="translate(-497.55 -396.46)"/></g><rect class="cls-24" x="187.5" y="89.5" width="14.95" height="3.37"/><rect class="cls-25" x="187.5" y="94.44" width="22.14" height="3.37"/><polygon class="cls-26" points="109.84 95.92 116.73 85.09 134.77 119.15 109.84 95.92"/><polygon class="cls-26" points="128.93 94.34 134.77 91.25 138.47 113.12 128.93 94.34"/><polygon class="cls-27" points="228.71 75.07 225.93 70.89 215.53 84.14 228.71 75.07"/><polygon class="cls-28" points="144.51 66.47 144.51 73.88 138.25 70.17 144.51 66.47"/><circle class="cls-25" cx="148.59" cy="70.17" r="2.58"/><rect class="cls-29" x="26.11" y="145.47" width="267.37" height="65.41"/><line class="cls-30" x1="209.64" y1="112.76" x2="215.04" y2="112.76"/><line class="cls-30" x1="218.3" y1="112.76" x2="223.69" y2="112.76"/><line class="cls-30" x1="216.14" y1="115.12" x2="217.51" y2="109.93"/><line class="cls-30" x1="225.94" y1="112.05" x2="224.91" y2="113.71"/><line class="cls-30" x1="192.61" y1="79.56" x2="193.98" y2="74.36"/><line class="cls-30" x1="195.07" y1="78.98" x2="191.51" y2="74.94"/><line class="cls-30" x1="56.1" y1="161.29" x2="57.47" y2="156.09"/><line class="cls-30" x1="58.56" y1="160.7" x2="55" y2="156.67"/><path class="cls-25" d="M599.93,505.39l-.12,0a.45.45,0,0,1-.32-.55l1.37-5.19a.45.45,0,0,1,.87.23l-1.37,5.19A.44.44,0,0,1,599.93,505.39Z" transform="translate(-497.55 -396.46)"/><path class="cls-21" d="M602.39,504.81a.47.47,0,0,1-.34-.16l-3.55-4a.45.45,0,1,1,.67-.59l3.56,4a.45.45,0,0,1,0,.63A.44.44,0,0,1,602.39,504.81Z" transform="translate(-497.55 -396.46)"/><path class="cls-31" d="M619.17,472.25h-.12a.45.45,0,0,1-.32-.55l1.38-5.2a.45.45,0,0,1,.55-.32.45.45,0,0,1,.32.55l-1.38,5.2A.44.44,0,0,1,619.17,472.25Z" transform="translate(-497.55 -396.46)"/><path class="cls-31" d="M621.63,471.67a.44.44,0,0,1-.33-.15l-3.56-4a.46.46,0,0,1,0-.64.44.44,0,0,1,.63,0l3.56,4a.46.46,0,0,1,0,.64A.46.46,0,0,1,621.63,471.67Z" transform="translate(-497.55 -396.46)"/><path class="cls-31" d="M764,564.72l-.11,0a.45.45,0,0,1-.32-.55L765,559a.45.45,0,0,1,.55-.32.46.46,0,0,1,.32.55l-1.37,5.2A.46.46,0,0,1,764,564.72Z" transform="translate(-497.55 -396.46)"/><path class="cls-31" d="M766.51,564.13a.45.45,0,0,1-.34-.15l-3.56-4a.45.45,0,1,1,.68-.6l3.56,4a.47.47,0,0,1,0,.64A.5.5,0,0,1,766.51,564.13Z" transform="translate(-497.55 -396.46)"/><path class="cls-31" d="M547.82,565.83h-.12a.46.46,0,0,1-.32-.55l1.37-5.2a.46.46,0,0,1,.55-.32.44.44,0,0,1,.32.55l-1.37,5.2A.44.44,0,0,1,547.82,565.83Z" transform="translate(-497.55 -396.46)"/><path class="cls-31" d="M550.28,565.25a.46.46,0,0,1-.34-.15l-3.55-4a.44.44,0,0,1,0-.63.44.44,0,0,1,.63,0l3.56,4a.47.47,0,0,1,0,.64A.48.48,0,0,1,550.28,565.25Z" transform="translate(-497.55 -396.46)"/><circle class="cls-4" cx="172.12" cy="54.5" r="2.38"/><circle class="cls-4" cx="177.56" cy="54.5" r="2.38"/><circle class="cls-25" cx="183.01" cy="54.5" r="2.38"/><circle class="cls-4" cx="188.45" cy="54.5" r="2.38"/></g></g></svg>